<?xml version="1.0" encoding="UTF-8" standalone="no"?>
<!-- Generator: Adobe Illustrator 19.0.0, SVG Export Plug-In . SVG Version: 6.00 Build 0)  -->

<svg
   xmlns:dc="http://purl.org/dc/elements/1.1/"
   xmlns:cc="http://creativecommons.org/ns#"
   xmlns:rdf="http://www.w3.org/1999/02/22-rdf-syntax-ns#"
   xmlns:svg="http://www.w3.org/2000/svg"
   xmlns="http://www.w3.org/2000/svg"
   xmlns:sodipodi="http://sodipodi.sourceforge.net/DTD/sodipodi-0.dtd"
   xmlns:inkscape="http://www.inkscape.org/namespaces/inkscape"
   version="1.1"
   x="0px"
   y="0px"
   viewBox="0 0 846 835"
   style="enable-background:new 0 0 846 835;"
   xml:space="preserve"
   id="svg133"
   sodipodi:docname="logo.svg"
   inkscape:export-filename="C:\Users\joeth\Downloads\Computer Society\compsoc-logo-black-outline.png"
   inkscape:export-xdpi="200.002"
   inkscape:export-ydpi="200.002"
   inkscape:version="0.92.4 (5da689c313, 2019-01-14)"><metadata
   id="metadata139"><rdf:RDF><cc:Work
       rdf:about=""><dc:format>image/svg+xml</dc:format><dc:type
         rdf:resource="http://purl.org/dc/dcmitype/StillImage" /><dc:title></dc:title></cc:Work></rdf:RDF></metadata><defs
   id="defs137" /><sodipodi:namedview
   pagecolor="#ffffff"
   bordercolor="#666666"
   borderopacity="1"
   objecttolerance="10"
   gridtolerance="10"
   guidetolerance="10"
   inkscape:pageopacity="0"
   inkscape:pageshadow="2"
   inkscape:window-width="2736"
   inkscape:window-height="1699"
   id="namedview135"
   showgrid="false"
   inkscape:zoom="1.1305389"
   inkscape:cx="443.55783"
   inkscape:cy="436.0045"
   inkscape:window-x="-13"
   inkscape:window-y="-13"
   inkscape:window-maximized="1"
   inkscape:current-layer="svg133" />
<style
   type="text/css"
   id="style2">
	.st0{fill:#363A46;}
	.st1{display:none;}
	.st2{display:inline;opacity:0.75;}
	.st3{fill:none;stroke:#000000;stroke-width:10;}
	.st4{display:inline;}
	.st5{fill:#007480;}
	.st6{fill:#B3C8CC;}
	.st7{fill:none;stroke:#007480;stroke-width:10;}
	.st8{display:inline;fill:#007480;}
	.st9{fill:#FFFFFF;}
	.st10{display:none;opacity:0.2;}
	.st11{display:inline;fill:none;stroke:#FFFFFF;stroke-width:5;stroke-linecap:round;stroke-linejoin:round;stroke-miterlimit:10;}
	.st12{fill:none;stroke:#FFFFFF;stroke-width:5;stroke-linecap:round;stroke-linejoin:round;stroke-miterlimit:10;}
	.st13{fill:none;stroke:#FFFFFF;stroke-width:10;}
	.st14{fill:none;stroke:#FFFFFF;stroke-width:3;}
</style>

<g
   id="board"
   class="st1">
	<g
   id="XMLID_502_"
   class="st2">
		<path
   id="XMLID_556_"
   d="M822,279V143L707,28H35v251h72v42H35v220h72v42H35v115l117,117h670V583h-71v-42h71V321h-71v-42H822z     M118.5,97c17.9,0,32.5,14.6,32.5,32.5c0,17.9-14.6,32.5-32.5,32.5S86,147.4,86,129.5C86,111.6,100.6,97,118.5,97z M773,710.5    c0,17.9-14.6,32.5-32.5,32.5S708,728.4,708,710.5c0-17.9,14.6-32.5,32.5-32.5S773,692.6,773,710.5z M729.8,363l57.3,0.1v35.5v87.6    l-94.5,18.3L732,611l8.5,34.8l-28.8,2.8l-35.1,16.1l-4.5,70.2v57.7h-48H217l-79.5-35.8l-74-101.9l4-35.9l100.3,13l-24.2-129.7    l-72.3-8.5L63.5,467V363l55.6-4.7l27.2-19.5l-12.2-86.7l-30.2-8.3L69,230.4L84.5,196l49.6,0.1l80.4-22.3l-25.4-62L188,84l10-22.6    l302-0.9L666.2,110l99.4,82.4l7.5,43.7l-18,13.4l-41.9,3.5L729.8,363z" />
		<path
   id="XMLID_546_"
   d="M702.9,38L812,147.1V269h-61h-10v10v42v10h10h61v200h-61h-10v10v42v10h10h61v212H156.1L45,693.9V593h62    h10v-10v-42v-10h-10H45V331h62h10v-10v-42v-10h-10H45V38H702.9 M201,167.2l-68.3,18.9L84.6,186l-6.5,0l-2.7,5.9l-15.6,34.4    l-4.4,9.7l9.9,3.8l34.9,13.4l0.5,0.2l0.5,0.1l23.9,6.6l10.5,74.2l-20.1,14.4L62.7,353l-9.2,0.8v9.2v104v1.4l0.4,1.4l7.8,26.8    l1.8,6.4l6.6,0.8l65,7.6l20.4,109l-86.6-11.2l-10.1-1.3l-1.1,10.1l-4,35.9l-0.4,3.9l2.3,3.1l74,101.9l1.6,2.2l2.4,1.1l79.5,35.8    l2,0.9h2.1h407h48h10v-10v-57.4l4.1-63.9l28.1-12.9l27.1-2.6l11.5-1.1l-2.8-11.2l-8.5-34.8l-0.1-0.6l-0.2-0.5l-35.3-95.4L789,496    l8.1-1.6v-8.2v-87.6v-35.5v-10l-10,0l-48.7-0.1l-13.8-90.9l31.3-2.6l2.9-0.2l2.3-1.7l18-13.4l4.9-3.7l-1-6l-7.5-43.7l-0.6-3.6    l-2.8-2.4l-99.4-82.4L671,101l-2-0.6L502.9,50.9l-1.4-0.4l-1.5,0l-302,0.9l-6.5,0l-2.6,5.9l-10,22.6l-0.9,2.1l0.1,2.3l1.1,27.9    l0.1,1.8l0.7,1.6L201,167.2 M118.5,172c23.4,0,42.5-19.1,42.5-42.5S141.9,87,118.5,87S76,106.1,76,129.5S95.1,172,118.5,172     M740.5,753c23.4,0,42.5-19.1,42.5-42.5S763.9,668,740.5,668S698,687.1,698,710.5S717.1,753,740.5,753 M707,28H35v251h72v42H35    v220h72v42H35v115l117,117h670V583h-71v-42h71V321h-71v-42h71V143L707,28L707,28z M134.1,196.1l80.4-22.3l-25.4-62L188,84l10-22.6    l302-0.9L666.2,110l99.4,82.4l7.5,43.7l-18,13.4l-41.9,3.5l16.8,110l57.3,0.1v35.5v87.6l-94.5,18.3L732,611l8.5,34.8l-28.8,2.8    l-35.1,16.1l-4.5,70.2v57.7h-48H217l-79.5-35.8l-74-101.9l4-35.9l100.3,13l-24.2-129.7l-72.3-8.5L63.5,467V363l55.6-4.7l27.2-19.5    l-12.2-86.7l-30.2-8.3L69,230.4L84.5,196L134.1,196.1L134.1,196.1z M118.5,162c-17.9,0-32.5-14.6-32.5-32.5    c0-17.9,14.6-32.5,32.5-32.5s32.5,14.6,32.5,32.5C151,147.4,136.4,162,118.5,162L118.5,162z M740.5,743    c-17.9,0-32.5-14.6-32.5-32.5c0-17.9,14.6-32.5,32.5-32.5s32.5,14.6,32.5,32.5C773,728.4,758.4,743,740.5,743L740.5,743z" />
		<path
   id="XMLID_541_"
   class="st3"
   d="M822,279V143L707,28H35v251h72v42H35v220h72v42H35v115l117,117h670V583h-71v-42h71V321h-71    v-42H822z M118.5,97c17.9,0,32.5,14.6,32.5,32.5c0,17.9-14.6,32.5-32.5,32.5S86,147.4,86,129.5C86,111.6,100.6,97,118.5,97z     M773,710.5c0,17.9-14.6,32.5-32.5,32.5S708,728.4,708,710.5c0-17.9,14.6-32.5,32.5-32.5S773,692.6,773,710.5z M729.8,363    l57.3,0.1v35.5v87.6l-94.5,18.3L732,611l8.5,34.8l-28.8,2.8l-35.1,16.1l-4.5,70.2v57.7h-48H217l-79.5-35.8l-74-101.9l4-35.9    l100.3,13l-24.2-129.7l-72.3-8.5L63.5,467V363l55.6-4.7l27.2-19.5l-12.2-86.7l-30.2-8.3L69,230.4L84.5,196l49.6,0.1l80.4-22.3    l-25.4-62L188,84l10-22.6l302-0.9L666.2,110l99.4,82.4l7.5,43.7l-18,13.4l-41.9,3.5L729.8,363z" />
	</g>
	<g
   id="XMLID_438_"
   class="st4">
		<g
   id="XMLID_481_">
			<g
   id="XMLID_482_">
				<path
   id="XMLID_497_"
   class="st5"
   d="M820,277V141L705,26H33v251h72v42H33v220h72v42H33v115l117,117h670V581h-71v-42h71V319h-71      v-42H820z M116.5,95c17.9,0,32.5,14.6,32.5,32.5c0,17.9-14.6,32.5-32.5,32.5S84,145.4,84,127.5C84,109.6,98.6,95,116.5,95z       M771,708.5c0,17.9-14.6,32.5-32.5,32.5S706,726.4,706,708.5c0-17.9,14.6-32.5,32.5-32.5S771,690.6,771,708.5z M727.8,361      l57.3,0.1v35.5v87.6l-94.5,18.3L730,609l8.5,34.8l-28.8,2.8l-35.1,16.1l-4.5,70.2v57.7h-48H215l-79.5-35.8l-74-101.9l4-35.9      l100.3,13l-24.2-129.7l-72.3-8.5L61.5,465V361l55.6-4.7l27.2-19.5l-12.2-86.7l-30.2-8.3L67,228.4L82.5,194l49.6,0.1l80.4-22.3      l-25.4-62L186,82l10-22.6l302-0.9L664.2,108l99.4,82.4l7.5,43.7l-18,13.4l-41.9,3.5L727.8,361z" />
				<path
   id="XMLID_488_"
   class="st6"
   d="M700.9,36L810,145.1V267h-61h-10v10v42v10h10h61v200h-61h-10v10v42v10h10h61v212H154.1      L43,691.9V591h62h10v-10v-42v-10h-10H43V329h62h10v-10v-42v-10h-10H43V36H700.9 M199,165.2l-68.3,18.9L82.6,184l-6.5,0l-2.7,5.9      l-15.6,34.4l-4.4,9.7l9.9,3.8l34.9,13.4l0.5,0.2l0.5,0.1l23.9,6.6l10.5,74.2l-20.1,14.4L60.7,351l-9.2,0.8v9.2v104v1.4l0.4,1.4      l7.8,26.8l1.8,6.4l6.6,0.8l65,7.6l20.4,109l-86.6-11.2l-10.1-1.3l-1.1,10.1l-4,35.9l-0.4,3.9l2.3,3.1l74,101.9l1.6,2.2l2.4,1.1      l79.5,35.8l2,0.9h2.1h407h48h10v-10v-57.4l4.1-63.9l28.1-12.9l27.1-2.6l11.5-1.1l-2.8-11.2l-8.5-34.8l-0.1-0.6l-0.2-0.5      l-35.3-95.4L787,494l8.1-1.6v-8.2v-87.6v-35.5v-10l-10,0l-48.7-0.1l-13.8-90.9l31.3-2.6l2.9-0.2l2.3-1.7l18-13.4l4.9-3.7l-1-6      l-7.5-43.7l-0.6-3.6l-2.8-2.4l-99.4-82.4L669,99l-2-0.6L500.9,48.9l-1.4-0.4l-1.5,0l-302,0.9l-6.5,0l-2.6,5.9l-10,22.6l-0.9,2.1      l0.1,2.3l1.1,27.9l0.1,1.8l0.7,1.6L199,165.2 M116.5,170c23.4,0,42.5-19.1,42.5-42.5S139.9,85,116.5,85S74,104.1,74,127.5      S93.1,170,116.5,170 M738.5,751c23.4,0,42.5-19.1,42.5-42.5S761.9,666,738.5,666S696,685.1,696,708.5S715.1,751,738.5,751       M705,26H33v251h72v42H33v220h72v42H33v115l117,117h670V581h-71v-42h71V319h-71v-42h71V141L705,26L705,26z M132.1,194.1      l80.4-22.3l-25.4-62L186,82l10-22.6l302-0.9L664.2,108l99.4,82.4l7.5,43.7l-18,13.4l-41.9,3.5l16.8,110l57.3,0.1v35.5v87.6      l-94.5,18.3L730,609l8.5,34.8l-28.8,2.8l-35.1,16.1l-4.5,70.2v57.7h-48H215l-79.5-35.8l-74-101.9l4-35.9l100.3,13l-24.2-129.7      l-72.3-8.5L61.5,465V361l55.6-4.7l27.2-19.5l-12.2-86.7l-30.2-8.3L67,228.4L82.5,194L132.1,194.1L132.1,194.1z M116.5,160      C98.6,160,84,145.4,84,127.5C84,109.6,98.6,95,116.5,95s32.5,14.6,32.5,32.5C149,145.4,134.4,160,116.5,160L116.5,160z       M738.5,741c-17.9,0-32.5-14.6-32.5-32.5c0-17.9,14.6-32.5,32.5-32.5s32.5,14.6,32.5,32.5C771,726.4,756.4,741,738.5,741      L738.5,741z" />
				<path
   id="XMLID_483_"
   class="st7"
   d="M820,277V141L705,26H33v251h72v42H33v220h72v42H33v115l117,117h670V581h-71v-42h71V319h-71      v-42H820z M116.5,95c17.9,0,32.5,14.6,32.5,32.5c0,17.9-14.6,32.5-32.5,32.5S84,145.4,84,127.5C84,109.6,98.6,95,116.5,95z       M771,708.5c0,17.9-14.6,32.5-32.5,32.5S706,726.4,706,708.5c0-17.9,14.6-32.5,32.5-32.5S771,690.6,771,708.5z M727.8,361      l57.3,0.1v35.5v87.6l-94.5,18.3L730,609l8.5,34.8l-28.8,2.8l-35.1,16.1l-4.5,70.2v57.7h-48H215l-79.5-35.8l-74-101.9l4-35.9      l100.3,13l-24.2-129.7l-72.3-8.5L61.5,465V361l55.6-4.7l27.2-19.5l-12.2-86.7l-30.2-8.3L67,228.4L82.5,194l49.6,0.1l80.4-22.3      l-25.4-62L186,82l10-22.6l302-0.9L664.2,108l99.4,82.4l7.5,43.7l-18,13.4l-41.9,3.5L727.8,361z" />
			</g>
		</g>
	</g>
</g>
<g
   id="board_cover"
   class="st1">
	<path
   id="XMLID_132_"
   class="st8"
   d="M736.8,596l-8.7-68.9l71.4-8.1L799,340.6l-60.5-8.4l-7.5-69.1l0.2-0.1H799V157.4L695,44H519.7   l-13.9-5.2L196,44h-16.7l-20,30.2l10.3,56.2l-21.4,34.5L136,182.6l-12.6,0.7l-66.8-4L49.3,262l71.8-0.1v73.7l-72,0.3v186l71.9,4.7   L121,599h-14l-31.3,0.5L49,596.9v92l110.5,113.9l205.8-1.9l330.5,1.9l-10.7-87.2l9.4-38.4L721,665h82v-69H736.8z M763.5,369   c9.1,0,16.6,7.4,16.6,16.6c0,9.1-7.4,16.6-16.6,16.6c-9.1,0-16.6-7.4-16.6-16.6C747,376.4,754.4,369,763.5,369z M763.5,439   c9.1,0,16.6,7.4,16.6,16.6c0,9.1-7.4,16.6-16.6,16.6c-9.1,0-16.6-7.4-16.6-16.6C747,446.4,754.4,439,763.5,439z M746.5,207   c9.1,0,16.6,7.4,16.6,16.6c0,9.1-7.4,16.6-16.6,16.6c-9.1,0-16.6-7.4-16.6-16.6C730,214.4,737.4,207,746.5,207z M100.5,234.1   c-9.1,0-16.6-7.4-16.6-16.6c0-9.1,7.4-16.6,16.6-16.6c9.1,0,16.6,7.4,16.6,16.6C117.1,226.7,109.7,234.1,100.5,234.1z M97.5,489.1   c-9.1,0-16.6-7.4-16.6-16.6c0-9.1,7.4-16.6,16.6-16.6c9.1,0,16.6,7.4,16.6,16.6C114.1,481.7,106.7,489.1,97.5,489.1z M115.5,663.1   c-9.1,0-16.6-7.4-16.6-16.6c0-9.1,7.4-16.6,16.6-16.6c9.1,0,16.6,7.4,16.6,16.6C132.1,655.7,124.7,663.1,115.5,663.1z M170.5,270   c9.1,0,16.6,7.4,16.6,16.6c0,9.1-7.4,16.6-16.6,16.6c-9.1,0-16.6-7.4-16.6-16.6C154,277.4,161.4,270,170.5,270z M170.5,391   c9.1,0,16.6,7.4,16.6,16.6c0,9.1-7.4,16.6-16.6,16.6c-9.1,0-16.6-7.4-16.6-16.6C154,398.4,161.4,391,170.5,391z M154,525.6   c0-9.1,7.4-16.6,16.6-16.6c9.1,0,16.6,7.4,16.6,16.6c0,9.1-7.4,16.6-16.6,16.6C161.4,542.1,154,534.7,154,525.6z M179.5,757.1   c-9.1,0-16.6-7.4-16.6-16.6c0-9.1,7.4-16.6,16.6-16.6c9.1,0,16.6,7.4,16.6,16.6C196.1,749.7,188.7,757.1,179.5,757.1z M212.5,98.1   c-9.1,0-16.6-7.4-16.6-16.6c0-9.1,7.4-16.6,16.6-16.6c9.1,0,16.6,7.4,16.6,16.6C229.1,90.7,221.7,98.1,212.5,98.1z M448.5,98.1   c-9.1,0-16.6-7.4-16.6-16.6c0-9.1,7.4-16.6,16.6-16.6c9.1,0,16.6,7.4,16.6,16.6C465.1,90.7,457.7,98.1,448.5,98.1z M497.5,161.1   c-9.1,0-16.6-7.4-16.6-16.6c0-9.1,7.4-16.6,16.6-16.6c9.1,0,16.6,7.4,16.6,16.6C514.1,153.7,506.7,161.1,497.5,161.1z M653.5,128   c9.1,0,16.6,7.4,16.6,16.6c0,9.1-7.4,16.6-16.6,16.6c-9.1,0-16.6-7.4-16.6-16.6C637,135.4,644.4,128,653.5,128z M560.5,361.1   c-9.1,0-16.6-7.4-16.6-16.6c0-9.1,7.4-16.6,16.6-16.6c9.1,0,16.6,7.4,16.6,16.6C577.1,353.7,569.7,361.1,560.5,361.1z M596,198.6   c0-9.1,7.4-16.6,16.6-16.6c9.1,0,16.6,7.4,16.6,16.6c0,9.1-7.4,16.6-16.6,16.6C603.4,215.1,596,207.7,596,198.6z M640.5,328   c9.1,0,16.6,7.4,16.6,16.6c0,9.1-7.4,16.6-16.6,16.6c-9.1,0-16.6-7.4-16.6-16.6C624,335.4,631.4,328,640.5,328z M644,782.6   c-9.1,0-16.6-7.4-16.6-16.6c0-9.1,7.4-16.6,16.6-16.6c9.1,0,16.6,7.4,16.6,16.6C660.6,775.2,653.2,782.6,644,782.6z M644,690.6   c-9.1,0-16.6-7.4-16.6-16.6c0-9.1,7.4-16.6,16.6-16.6c9.1,0,16.6,7.4,16.6,16.6C660.6,683.2,653.2,690.6,644,690.6z M654.5,550.1   c-9.1,0-16.6-7.4-16.6-16.6c0-9.1,7.4-16.6,16.6-16.6c9.1,0,16.6,7.4,16.6,16.6C671.1,542.7,663.7,550.1,654.5,550.1z M678,434.6   c0-9.1,7.4-16.6,16.6-16.6c9.1,0,16.6,7.4,16.6,16.6c0,9.1-7.4,16.6-16.6,16.6C685.4,451.1,678,443.7,678,434.6z M711.5,642.1   c-9.1,0-16.6-7.4-16.6-16.6c0-9.1,7.4-16.6,16.6-16.6c9.1,0,16.6,7.4,16.6,16.6C728.1,634.7,720.7,642.1,711.5,642.1z" />
</g>
<g
   id="wolf">
	<polygon
   id="XMLID_116_"
   class="st9"
   points="489.3,269.1 483.7,276.1 497,280.6 497.9,278.4 490.8,272.8  " />
	<polygon
   id="XMLID_115_"
   class="st9"
   points="535.9,245 531.9,246.7 532.8,253.6 539.6,248.5  " />
	<g
   id="XMLID_4_">
		<g
   id="wolf_1_">
			<g
   id="XMLID_1104_"
   class="st10">
				<path
   id="XMLID_1162_"
   class="st11"
   d="M548.2,472.9c0.1,0.1,0.4,0.3,0.6,0.4c12.2,10.6,23.9,21.5,33.7,34.5      c6.5,8.8,15,15.4,25.5,19.2c1.6,0.6,3,1.1,4.8,1.3c-0.3-0.6-0.6-1-0.8-1.4c-5.1-8.5-9.3-17.3-12.7-26.4      c-2.1-5.5-3.8-11.2-6.9-16.3c-6.6-11.3-16.7-18.8-28.3-24.5c-12.3-5.9-23.1-14-33.5-22.8c0.1-0.1,0.3-0.3,0.4-0.3      c5.9,3.3,11.9,6.5,18.1,9.2c9.8,4.2,19.8,7.8,30.5,8.8c3.1,0.3,6.2,0.3,9.8-0.4c-34.6-35.8-74.2-62.4-122.7-74.4      c17.4,0.7,34.9,0.7,52.3,3.7c-0.3-0.8-1-0.8-1.4-1.1c-5.4-3.1-10.9-5.8-16.7-8.2c-10.5-4.4-21.2-7.6-32.5-8.5      c-10.2-0.7-20.5-1.1-30.7-2.1c-8.6-0.7-17.1-1.8-25.6-3.8c-4-1-7.8-2.1-11.3-4c3.1,0.1,6.2,0.4,9.2,0.7      c8.2,0.8,16.3,1.3,24.5,1.7c9.2,0.4,18.4,0.6,27.6-0.7c2.5-0.3,4.9-0.7,7.4-2.1c-9.9-2.5-19.1-6.4-27.7-11.3      c-7.5-4.2-13.9-9.9-20.4-15.4c-4-3.4-8.1-6.5-12.9-8.6c-1.6-0.7-3.1-1.4-4.7-2c-7.6-2.8-15.6-3-23.6-2.7      c-5.4,0.1-10.6-0.1-15.8-1.3c-16.1-3.5-31-10.3-45.1-18.5c-0.1-0.1-0.6-0.1-0.3-0.7c3.1,0.4,6.4,0.7,9.6,1.1      c7.5,1.1,15,2,22.1,4.7c16.7,6.5,33.8,6.8,50.9,2.1c6.8-1.8,13.6-3.7,20.6-4.1c14.8-1,29.7,0.1,44.5,1.6      c12.9,1.3,25.7,2.5,38.6,3.4c3.3,0.1,6.5,0.1,9.6-0.6c2.7-0.6,4.5-2,4.9-4.9c0.1-1.3,0.7-2.7,1.1-4c1.4-4.5,3.4-8.8,5.9-12.7      c-0.3,0-0.4,0-0.6,0c-15.7,1.1-31.4,1.8-47.1,1.3c-10.9-0.4-21.6-1.8-31.8-6.1c-4-1.7-7.9-3.3-11.9-4.8      c-6.9-2.7-14.3-2.7-21.6-2.4c-0.8,0-1.4,0.1-1.4-1.1c0-4.1,0.3-8.1,1.4-12c2-7.1,6.2-11.9,13.6-13.6c7.5-1.8,15-3.3,22.6-4      c7.4-0.7,14.7-1.1,21.9,0.1c10.7,1.8,21.5,2.8,32.4,3.3c11.2,0.4,22.3,0.8,33.5-0.4c8.5-1,15.6-4.5,19.9-12.3      c4.7-8.2,7.4-17.1,10-26c0.3-0.8-0.1-1-0.8-1.1c-4.1-0.7-8.2-1.3-12.2-2c-20.8-3.5-41.4-7.2-61.8-12.3c-8.3-2-16.8-4.1-24.6-7.8      c-1.3-0.6-2.5-1-3.4-2.3c2.1-1,4.1-2.1,6.1-3.1c0.8-0.4,1-0.7,0.6-1.7c-2.4-5.4-4.9-10.6-8.3-15.6c-3-4.4-6.2-8.8-12-9.8      c-1.4-0.3-2.8-0.6-4.1-0.8c-7.6-1.3-15.3-2-22.9-3c-7.8-1-15.4-2.4-22.9-4.4c-10.3-2.7-20.9-3-31.7-2.5c-4.8,0.1-9.6,0.4-14.3,2      c-1.4,0.4-2.1,0-2.7-1.1c-0.7-1.4-0.8-3.1-0.7-4.7c0.4-7.1,0.8-14.1,0.4-21.2c-0.8-16.1-2.3-32.2-5.5-48.1      c-0.8-3.8-1.7-7.6-3.3-11.5c-7.1,7.9-13.9,15.7-22.9,20.9c0.3,0.4,0.7,0.6,1.1,0.7c3.8,1.8,7.6,3.5,11.6,4.7      c0.8,0.3,1.1,0.6,0.7,1.6c-2.7,6.5-5.2,13-9.1,18.9c-7.5,11.2-10.7,23.5-10.5,36.9c0.1,10.3,1.7,20.5,3.7,30.5      c0.4,2.1,0.8,4.1,1.3,6.2c-1.1-1.1-1.8-2.4-2.7-3.5c-2.8-4.1-5.5-8.2-8.8-11.9c-1.1-1.3-2.1-1.4-3.5-0.7      c-1.3,0.7-2.5,1.3-3.7,2.1c-14,9.5-26.6,20.6-37.8,33.4c-2.4,2.7-4.7,5.7-6.6,8.9c9.2-2.3,18.1-4.9,28-4.5      c-4.2,3-7.6,6.1-10.6,9.6c-3.3,3.4-6.1,7.2-8.5,11.2c-7.1,11.5-14.7,22.5-23.1,33.1c-2,2.4-3.8,4.9-6.1,7.6      c14.6-0.8,28.8-1.7,43-3.3c0.1,0.1,0.1,0.3,0.3,0.3c-0.1,0-0.1,0.1-0.3,0.1c-13,5.4-25.3,12.2-35.8,21.6      c-6.5,5.9-11.9,12.9-15.3,21.2c-1,2.5-1.7,3.8-2.4,7.9c-0.7,4.2-4.2,41.4-4.1,46.1c0.1,4.7,0.3,3.5,0.3,6.8s-0.1,4.8,0.4,7.4      c1.4-1.4,2.7-2.7,4.1-3.8c3.7-3.1,7.6-5.8,12.6-6.4c1.3-0.1,1.4,0.1,1,1.4c-3.8,10.9-6.6,22.1-7.8,33.5      c-0.7,7.2-0.7,14.4,1.1,21.5c1.3,5.2,4,9.8,6.2,14.6c8.6,18,13.7,36.8,14.6,56.7c0.1,3.1,0.1,6.1,0.3,9.2      c0.4-0.1,0.4-0.4,0.6-0.7c1.6-5.5,3.3-11,5.1-16.4c3.1-8.6,6.5-17.3,11.5-25c1.6-2.4,3.4-4.8,5.8-6.6c0.1,0.4,0.3,0.8,0.4,1.3      c2.4,8.5,4.1,17.3,4.9,26c0.6,5.8,0.7,11.5,0.1,17.3c-0.6,7.1-2.7,13.9-4.8,20.6c-2,6.6-4.8,13-9.3,18.4c-0.3,0.4-0.7,0.7-1,1.1      c-0.3,0.4-0.7,0.6-0.7,1.3c13.6-7.4,26.4-15.6,37.2-26.6c5.9-5.9,10.2-12.9,11.9-21.2c1.4-6.9,2.8-13.9,4.4-20.6      c0.6-2.8,1.6-5.5,4-7.5c2.8,3.8,5.4,7.6,7.9,11.6c5.7,9.1,10.9,18.4,14.1,28.7c3.5,10.9,2.4,21.1-4.5,30.4      c-0.4,0.7-1,1.4-1.4,2.1c0.3,0,0.6,0,0.7,0c5.7-1.7,11.2-3.7,16.4-6.5c5.8-3.1,10.5-7.1,12.6-13.6c2.5-7.8,3.4-15.8,3.8-24      c0.1-2.7-0.3-5.5,0.3-8.2c4,16.8,9.2,33.2,17.3,48.5c3.4,6.6,7.5,12.9,13,18c2.3,2,4.5,3.8,7.5,4.9c0-1.4,0-2.7,0-4      c0.1-6.2,1-12.3,2.5-18.2c2-7.8,6.4-14.3,10.9-20.6c4.2-5.9,8.1-12.2,9.5-19.5c0.3-1.4,0.4-3,0.4-4.4c0.1-1.4,0-3,0-4.4      c0.3,0.4,0.4,0.8,0.6,1.4c4,13.9,8.2,27.6,13.9,40.9c4.1,9.8,9.9,18.1,18.4,24.6c11,8.3,23.6,10.7,37.2,9.6      c1.3-0.1,1-0.6,0.4-1.3c-3-4.1-5.7-8.3-8.1-12.9c-3.5-6.6-5.5-13.6-4.4-21.4c0.7-5.4,1.3-10.7,1.1-16.3      c-0.1-3.3-0.7-6.5-1.6-9.8c0.7,0.4,0.8,1,1.3,1.4c2.3,3.3,4.4,6.5,6.6,9.6c3.8,5.2,7.6,10.6,12.4,14.8      c6.5,5.7,14.7,7.6,22.9,9.5c5.1,1.4,10.5,2.3,15.7,3c8.2,1.1,16.1,3,23.8,6.1c3.8,1.4,7.2,3.4,10.5,6.6c-0.1-0.7-0.1-1-0.3-1.1      c-7.9-18.2-16.7-35.9-27.6-52.6c-3.5-5.2-7.4-10.2-11.3-15.1C548.1,473.1,548.2,473.1,548.2,472.9z M586.3,246      c-4.8,3.1-9.8,6.1-14.8,8.5c-12.4,5.9-25.5,8.1-39.2,5.8c-10-1.6-19.5-4.8-28.7-8.8c-11-4.8-22.6-7.4-34.6-7.9      c-13.2-0.6-26,0.7-38.9,3.5c-2,0.4-4,0.7-6.2,1.7c4,0,7.5,0,11.2,0c8.1,0.1,16,0.7,23.9,1.8c13.4,2,26.2,6.5,38.2,12.7      c8.1,4.1,16.1,7.9,24.6,11.2c14,5.2,27,3.4,39.5-4.2c6.4-4,12-8.8,17.1-14.3C581.2,253,584,249.6,586.3,246z M372,77.3      c3.4,1.6,6.6,2.8,10.2,3.5c1.1,0.3,1.3,0.6,1,1.6c-1.6,6.1-3,12-4.8,18c-3.7,11.6-7.1,23.2-14.8,33.1c5.2-0.6,10.3-1,15.4-1.1      c6.8-0.1,13.7-0.1,20.4,1.8c1.3,0.4,1.6,0.1,1.7-1.1c0.4-4.4,1-8.8,1.3-13.2c0.4-6.4,0.7-12.6-0.4-18.9      c-2.1-10.9-5.4-21.4-8.5-32c-1.4-4.7-2.7-9.2-4.2-14.1C385.2,64.1,379.7,71.3,372,77.3z M492.1,267.7c-3.4,3.8-6.4,7.2-9.8,11      c4.7,0,9.1,0,13.4,0C494.6,275.1,493.4,271.6,492.1,267.7z M543.8,246c-3.5,0.3-6.9,0.6-10.2,0.8c-0.7,0-1,0.4-0.8,1.1      c0.7,3.5,1.4,7.1,2.1,10.9C537.9,254.4,540.7,250.3,543.8,246z M526.2,247c-2.1,0-4.1,0-5.9,0c-0.6,0-0.7,0.1-0.6,0.7      c0.8,2.1,1.7,4.4,2.7,6.8C523.6,251.8,524.9,249.5,526.2,247z M507.9,278.8c-0.7-2.1-1.4-4.1-2.1-6.4c-2,2.3-3.7,4.1-5.7,6.4      C503,278.8,505.4,278.8,507.9,278.8z M512.7,246.4c-2,0-3.8,0-5.8,0c1,1.7,2,3.4,3,5.1C510.9,249.6,511.7,248.1,512.7,246.4z" />
				<path
   id="XMLID_1156_"
   class="st11"
   d="M368.4,330.4c-1,0-2,0.1-2.8,0c-1.6-0.1-2.1,0.3-2,2c0.1,4.5,0,9.1,0,13.6 M274,206.8      c3-3.5,6.4-6.6,10.6-9.6c-9.9-0.4-18.8,2.3-28,4.5c2-3.4,4.2-6.2,6.6-8.9c11.2-12.7,23.6-23.9,37.8-33.4      c1.1-0.8,2.4-1.4,3.7-2.1c1.4-0.8,2.5-0.6,3.5,0.7c3.3,3.7,5.9,7.8,8.8,11.9c0.8,1.3,1.6,2.4,2.7,3.5c-0.4-2.1-0.8-4.1-1.3-6.2      c-2-10-3.4-20.2-3.7-30.5c-0.3-13.4,3.1-25.6,10.5-36.9c3.8-5.8,6.5-12.4,9.1-18.9c0.4-1,0.1-1.3-0.7-1.6      c-4.1-1.1-7.9-2.8-11.6-4.7c-0.4-0.1-0.8-0.3-1.1-0.7c9.1-5.4,15.8-13.2,22.9-20.9c1.6,3.8,2.5,7.6,3.3,11.5      c3.3,15.8,4.8,32,5.5,48.1c0.4,7.1-0.1,14.1-0.4,21.2c-0.1,1.6,0.1,3.1,0.7,4.7c0.6,1.1,1.3,1.7,2.7,1.1c4.7-1.6,9.5-1.8,14.3-2      c10.6-0.4,21.4-0.1,31.7,2.5c7.5,2,15.1,3.4,22.9,4.4c7.6,1,15.3,1.7,22.9,3c1.4,0.3,2.8,0.6,4.1,0.8c5.8,1,9.1,5.2,12,9.8      c3.3,4.9,5.9,10.2,8.3,15.6c0.4,0.8,0.3,1.3-0.6,1.7c-2.1,1-4.1,2-6.1,3.1c1,1.1,2.3,1.7,3.4,2.3c7.9,3.7,16.3,5.7,24.6,7.8      c20.4,4.9,41,8.8,61.8,12.3c4.1,0.7,8.2,1.4,12.2,2c0.7,0.1,1.1,0.3,0.8,1.1c-2.7,8.9-5.5,17.8-10,26      c-4.4,7.8-11.5,11.3-19.9,12.3c-11.2,1.3-22.3,0.8-33.5,0.4c-10.9-0.4-21.6-1.4-32.4-3.3c-7.2-1.3-14.7-0.8-21.9-0.1      c-7.6,0.7-15.1,2.3-22.6,4c-7.5,1.8-11.6,6.5-13.6,13.6c-1.1,4-1.4,7.9-1.4,12c0,1.3,0.6,1.1,1.4,1.1c7.4-0.4,14.6-0.3,21.6,2.4      c4,1.6,7.9,3.1,11.9,4.8c10.2,4.2,20.8,5.8,31.8,6.1c15.7,0.6,31.4-0.1,47.1-1.3c0.1,0,0.3,0,0.6,0c-2.5,4.1-4.5,8.3-5.9,12.7      c-0.4,1.3-0.8,2.5-1.1,4c-0.4,3-2.3,4.2-4.9,4.9c-3.1,0.7-6.4,0.7-9.6,0.6c-12.9-0.8-25.7-2.1-38.6-3.4      c-14.8-1.4-29.6-2.5-44.5-1.6c-7.1,0.4-13.9,2.3-20.6,4.1c-17.1,4.7-34.1,4.4-50.9-2.1c-7.1-2.7-14.6-3.7-22.1-4.7      c-3.3-0.4-6.4-0.8-9.6-1.1c-0.3,0.6,0.1,0.6,0.3,0.7c14.1,8.3,29,15,45.1,18.5c5.2,1.1,10.5,1.4,15.8,1.3      c7.9-0.3,16-0.1,23.6,2.7c1.6,0.6,3.1,1.3,4.7,2 M384.3,193.2c0.3-0.1,0.7-0.1,1-0.3c4.8-1.4,9.8-2.5,14.7-3.5      c1.4-0.3,2.3,0,3.3,1c2.4,2.4,4.9,4.8,7.5,7.1c2.5,2.3,4.9,4.7,8.3,5.7c6.1,2,11.9,0.6,17.5-2c4.5-2,8.1-4.8,9.1-10      c0.1-0.8,0.7-0.7,1.3-0.8c2.1-0.1,4.1-0.6,5.8-1.6c3.1-1.7,4.9-5.7,3.8-8.6c-1.3-3.4-4.1-5.1-7.2-6.8c-0.1,1.7-0.1,3.1-0.3,4.7      c-0.4,4.2-2.5,6.2-6.8,6.1c-5.5,0-11-1.4-16.4-2.7c-8.5-2-17-1.8-25.2,1.3C394.7,185.3,389.1,188.6,384.3,193.2z" />
				<path
   id="XMLID_1155_"
   class="st11"
   d="M586.3,246c-2.4,3.7-5.1,6.9-8.1,10.2c-5.1,5.5-10.7,10.3-17.1,14.3      c-12.4,7.6-25.6,9.6-39.5,4.2c-8.5-3.3-16.7-7.1-24.6-11.2c-12.2-6.2-24.7-10.7-38.2-12.7c-7.9-1.1-16-1.8-23.9-1.8      c-3.5,0-7.1,0-11.2,0c2.3-1,4.2-1.3,6.2-1.7c12.9-2.8,25.7-4.1,38.9-3.5c12,0.6,23.5,3.1,34.6,7.9c9.2,4,18.8,7.2,28.7,8.8      c13.7,2.1,26.7,0,39.2-5.8C576.7,252,581.5,249.2,586.3,246z" />
				<path
   id="XMLID_1154_"
   class="st11"
   d="M372,77.3c7.6-5.8,13.3-13.2,17-22.3c1.6,4.9,2.8,9.6,4.2,14.1c3.1,10.6,6.4,21.1,8.5,32      c1.3,6.2,0.8,12.6,0.4,18.9c-0.3,4.4-0.8,8.8-1.3,13.2c-0.1,1.1-0.4,1.4-1.7,1.1c-6.6-2-13.4-2-20.4-1.8      c-5.1,0.1-10.2,0.6-15.4,1.1c7.8-9.9,11.2-21.6,14.8-33.1c1.8-5.9,3.4-11.9,4.8-18c0.3-1.1,0-1.4-1-1.6      C378.7,80.1,375.3,78.8,372,77.3z" />
				<path
   id="XMLID_1153_"
   class="st11"
   d="M492.1,267.7c1.3,3.8,2.4,7.4,3.7,11c-4.4,0-8.6,0-13.4,0      C485.7,275,488.8,271.4,492.1,267.7z" />
				<path
   id="XMLID_1152_"
   class="st11"
   d="M543.8,246c-3.1,4.4-5.9,8.5-8.9,12.9c-0.7-3.8-1.4-7.4-2.1-10.9c-0.1-0.7,0.1-1,0.8-1.1      C536.9,246.5,540.3,246.2,543.8,246z" />
				<path
   id="XMLID_1151_"
   class="st11"
   d="M526.2,247c-1.3,2.5-2.4,4.9-3.7,7.5c-1-2.4-1.8-4.7-2.7-6.8c-0.3-0.6,0-0.7,0.6-0.7      C522.1,247,524,247,526.2,247z" />
				<path
   id="XMLID_1150_"
   class="st11"
   d="M507.9,278.8c-2.5,0-4.9,0-7.8,0c2-2.3,3.7-4.2,5.7-6.4      C506.7,274.5,507.2,276.7,507.9,278.8z" />
				<path
   id="XMLID_1149_"
   class="st11"
   d="M512.7,246.4c-1,1.7-1.8,3.3-2.8,5.1c-1-1.7-2-3.3-3-5.1      C508.9,246.4,510.6,246.4,512.7,246.4z" />
				<path
   id="XMLID_1148_"
   class="st11"
   d="M344.2,381.2c-0.3,0.6-0.1,1.3-0.1,1.8c0,7.1,0,14.3-0.1,21.4      c-0.6,18.5-13.7,32-32.2,33.5c-7.5,0.6-15,0.3-21.9-2.7c-12.2-5.1-18.8-14.4-20.6-27.3c-0.4-3-0.4-5.9-0.4-8.9      c0-16.5,0-33.1,0-49.8c0-1.6-0.4-2-1.8-1.8c-2.7,0.1-5.4,0-8.2,0c-1,0-1.4-0.1-1.4-1.4c0-4.8,0-9.5,0-14.3c0-1,0.3-1.3,1.3-1.3      c12.9,0,25.7,0,38.7,0c1,0,1.3,0.3,1.3,1.3c0,4.8,0,9.5,0,14.3c0,1.3-0.4,1.4-1.4,1.4c-2.1,0-4.2,0-6.5,0      c-1.3,0-1.7,0.3-1.7,1.7c0,9.6,0,19.1,0,28.7c0,7.2,0,14.4,0,21.8c0,3.5,0.4,6.9,1.8,10c3,6.6,10.2,10.5,17.8,9.6      c7.5-0.8,13.2-5.9,14.6-13.3c0.6-2.8,0.7-5.7,0.7-8.5c0-11.6,0-23.2,0-34.8c0-0.3,0-0.7-0.1-1c0-1,0-1.8,0-2.8      c0-3.4,0-6.9,0.1-10.3c0-1-0.4-1.1-1.3-1.1c-2.4,0-4.7,0-7.1,0c-1,0-1.4-0.3-1.4-1.3c0-3.4,0-6.9,0-10.3c0-0.6,0.1-1.1-0.1-1.7      c0.3-1.1-0.4-2.8,0.4-3.4c1-0.6,2.5-0.3,3.8-0.3c11.9,0,23.8,0,35.6,0c1.4,0,1.7,0.4,1.7,1.7c-0.1,5.1-0.1,10.2-0.1,15.3      c-3.3,0-6.6,0-9.9,0c-0.7,0-1.4-0.1-1.4,0.8c0.1,2.5-0.3,5.1,0.1,7.8c-0.1,3.1-0.1,6.2,0,9.3c-0.3,3.4-0.3,6.9,0,10.3      C344,377.5,344,379.3,344.2,381.2z" />
				<path
   id="XMLID_1147_"
   class="st11"
   d="M395.4,352.6c-0.4,3.5-0.1,7.2-0.1,10.9c0,17.7,0,35.2,0,52.9c0,1.3,0.4,1.6,1.6,1.6      c7.4,0,14.7-0.1,22.1,0c1.4,0,1.7-0.4,1.7-1.7c-0.1-3.7,0-7.2-0.1-10.9c0-1.1,0.4-1.4,1.4-1.4c5.8,0,11.6,0,17.5,0      c1,0,1.3,0.3,1.3,1.3c0,9.9,0,19.7,0,29.6c0,1.4-0.7,1.3-1.6,1.3c-10.6,0-21.2,0-31.8,0c-0.7,0-1.4,0.1-2,0.1      c-1.4,0-2.8-0.1-4.2-0.1c-11.9,0-23.9,0-35.8,0c-1.3,0-1.7-0.3-1.7-1.7c0.1-4.7,0.1-9.3,0-14.1c0-1.1,0.3-1.3,1.3-1.3      c3,0,5.9,0,9.1,0c0.8,0,1.3-0.1,1.3-1.1c0-10.3,0-20.6,0-30.8c0-0.1,0-0.3-0.1-0.6c0-2.5,0-5.2,0-7.8c0-1,0-2,0-3      c0-9.2,0-18.2,0.1-27.4c0-1-0.4-1-1.1-1c-3,0-5.9,0-8.9,0c-1,0-1.7-0.1-1.6-1.3c0-0.1,0-0.1,0-0.3c0-4.5,0.1-9.1,0-13.6      c0-1.7,0.4-2.1,2-2c1,0.1,2,0,2.8,0c3.4,0,6.9,0.1,10.3,0.1c8.8,0,17.5,0,26.2,0c1.4,0,1.8,0.4,1.7,1.8c-0.1,3,0,5.8,0,8.8      c0,1.7-0.1,3.5,0,5.2c0,0.8-0.3,1.1-1.1,1.1c-1.8,0-3.7,0-5.4,0c-1.6,0-3.7-0.7-4.5,0.3C394.7,348.9,395.2,351,395.4,352.6z" />
				<path
   id="XMLID_1144_"
   class="st11"
   d="M384.3,193.2c4.8-4.7,10.3-7.9,16.4-10.2c8.2-3.1,16.5-3.3,25.2-1.3      c5.4,1.3,10.7,2.5,16.4,2.7c4.2,0,6.4-1.8,6.8-6.1c0.1-1.4,0.1-3,0.3-4.7c3.1,1.6,5.9,3.4,7.2,6.8c1.1,3-0.7,6.9-3.8,8.6      c-1.8,1-3.8,1.4-5.8,1.6c-0.6,0-1.1,0-1.3,0.8c-0.8,5.2-4.5,8.1-9.1,10c-5.7,2.5-11.5,4-17.5,2c-3.4-1-5.8-3.5-8.3-5.7      c-2.5-2.3-5.1-4.7-7.5-7.1c-1-1-2-1.3-3.3-1c-4.9,1-9.9,2.1-14.7,3.5C385,193.1,384.6,193.1,384.3,193.2z M445.1,194.1      c0,0,1.1-2.5,1-3c-0.7-1.3-3.5,0.7-8.1-0.4c-2.3-0.6-4.5-0.7-6.8-1.1c-1.1-0.3-1.6,0.1-1.6,1.3c0,0.8-0.4,1.7-0.7,2.4      c-1.4,2.8-3.3,3.1-5.2,0.7c-1-1.3-2-2.7-2.5-4.2c-0.4-1.1-1-1.4-2.1-1.4c-2.5,0-5.1-0.3-7.6,0c-2.3,0.3-5.4,0.7-9.9,0.8" />
				<path
   id="XMLID_1143_"
   class="st11"
   d="M360.3,375.8" />
				<path
   id="XMLID_1142_"
   class="st11"
   d="M344.2,381.2c-0.1-1.8-0.1-3.7,0-5.5" />
				<path
   id="XMLID_1141_"
   class="st11"
   d="M279.5,255.4c0.4-0.3,0.8-0.3,1.4,0c-0.4,0.1-0.8,0.3-1.1,0.3      C279.7,255.6,279.7,255.6,279.5,255.4z" />
				<path
   id="XMLID_1140_"
   class="st11"
   d="M530.6,437c-0.3-0.3-0.6-0.4-0.8-0.7l0.1-0.1c0.4,0,0.8,0.3,1.1,0.6      C530.8,436.7,530.7,436.9,530.6,437z" />
				<path
   id="XMLID_1139_"
   class="st11"
   d="M529.7,436.3c-0.1-0.1-0.3-0.3-0.4-0.4c0.3-0.3,0.4,0,0.6,0.1      C529.7,436.2,529.7,436.2,529.7,436.3z" />
				<path
   id="XMLID_1138_"
   class="st11"
   d="M548.1,473.2c-0.1-0.1-0.3-0.3-0.3-0.3c0.1-0.3,0.3,0,0.4,0.1      C548.2,473.1,548.1,473.1,548.1,473.2z" />
			</g>
			<g
   id="XMLID_995_">
				<g
   id="XMLID_1032_">
					<g
   id="XMLID_1033_">
						<g
   id="XMLID_1034_">
							<path
   id="XMLID_1059_"
   class="st12"
   d="M546.8,471.5c0.1,0.1,0.4,0.3,0.6,0.4c12.2,10.6,23.9,21.5,33.7,34.5         c6.5,8.8,15,15.4,25.5,19.2c1.6,0.6,3,1.1,4.8,1.3c-0.3-0.6-0.6-1-0.8-1.4c-5.1-8.5-9.3-17.3-12.7-26.4         c-2.1-5.5-3.8-11.2-6.9-16.3c-6.6-11.3-16.7-18.8-28.3-24.5c-12.3-5.9-23-14-33.5-22.8c0.1-0.1,0.3-0.3,0.4-0.3         c5.9,3.3,11.9,6.5,18.1,9.2c9.8,4.2,19.8,7.8,30.5,8.8c3.1,0.3,6.2,0.3,9.8-0.4c-34.6-35.8-74.2-62.4-122.7-74.4         c17.4,0.7,34.9,0.7,52.3,3.7c-0.3-0.8-1-0.8-1.4-1.1c-5.4-3.1-10.9-5.8-16.7-8.2c-10.5-4.4-21.2-7.6-32.5-8.5         c-10.2-0.7-20.5-1.1-30.7-2.1c-8.6-0.7-17.1-1.8-25.6-3.8c-4-1-7.8-2.1-11.3-4c3.1,0.1,6.2,0.4,9.2,0.7         c8.2,0.8,16.3,1.3,24.5,1.7c9.2,0.4,18.4,0.6,27.6-0.7c2.5-0.3,4.9-0.7,7.4-2.1c-9.9-2.5-19.1-6.4-27.7-11.3         c-7.5-4.2-13.9-9.9-20.4-15.4c-4-3.4-8.1-6.5-12.9-8.6c-1.6-0.7-3.1-1.4-4.7-2c-7.6-2.8-15.6-3-23.6-2.7         c-5.4,0.1-10.6-0.1-15.8-1.3c-16.1-3.5-31-10.3-45.1-18.5c-0.1-0.1-0.6-0.1-0.3-0.7c3.1,0.4,6.4,0.7,9.6,1.1         c7.5,1.1,15,2,22.1,4.7c16.7,6.5,33.8,6.8,50.9,2.1c6.8-1.8,13.6-3.7,20.6-4.1c14.8-1,29.7,0.1,44.5,1.6         c12.9,1.3,25.7,2.5,38.6,3.4c3.3,0.1,6.5,0.1,9.6-0.6c2.7-0.6,4.5-2,4.9-4.9c0.1-1.3,0.7-2.7,1.1-4c1.4-4.5,3.4-8.8,5.9-12.7         c-0.3,0-0.4,0-0.6,0c-15.7,1.1-31.4,1.8-47.1,1.3c-10.9-0.4-21.6-1.8-31.8-6.1c-4-1.7-7.9-3.3-11.9-4.8         c-6.9-2.7-14.3-2.7-21.6-2.4c-0.8,0-1.4,0.1-1.4-1.1c0-4.1,0.3-8.1,1.4-12c2-7.1,6.2-11.9,13.6-13.6c7.5-1.8,15-3.3,22.6-4         c7.4-0.7,14.7-1.1,21.9,0.1c10.7,1.8,21.5,2.8,32.4,3.3c11.2,0.4,22.3,0.8,33.5-0.4c8.5-1,15.6-4.5,19.9-12.3         c4.7-8.2,7.4-17.1,10-26c0.3-0.8-0.1-1-0.8-1.1c-4.1-0.7-8.2-1.3-12.2-2c-20.8-3.5-41.4-7.2-61.8-12.3         c-8.3-2-16.8-4.1-24.6-7.8c-1.3-0.6-2.5-1-3.4-2.3c2.1-1,4.1-2.1,6.1-3.1c0.8-0.4,1-0.7,0.6-1.7c-2.4-5.4-4.9-10.6-8.3-15.6         c-3-4.4-6.2-8.8-12-9.8c-1.4-0.3-2.8-0.6-4.1-0.8c-7.6-1.3-15.3-2-22.9-3c-7.8-1-15.4-2.4-22.9-4.4         c-10.3-2.7-20.9-3-31.7-2.5c-4.8,0.1-9.6,0.4-14.3,2c-1.4,0.4-2.1,0-2.7-1.1c-0.7-1.4-0.8-3.1-0.7-4.7         c0.4-7.1,0.8-14.1,0.4-21.2c-0.8-16.1-2.3-32.2-5.5-48.1c-0.8-3.8-1.7-7.6-3.3-11.5c-7.1,7.9-13.9,15.7-22.9,20.9         c0.3,0.4,0.7,0.6,1.1,0.7c3.8,1.8,7.6,3.5,11.6,4.7c0.8,0.3,1.1,0.6,0.7,1.6c-2.7,6.5-5.2,13-9.1,18.9         c-7.5,11.2-10.7,23.5-10.5,36.9c0.1,10.3,1.7,20.5,3.7,30.5c0.4,2.1,0.8,4.1,1.3,6.2c-1.1-1.1-1.8-2.4-2.7-3.5         c-2.8-4.1-5.5-8.2-8.8-11.9c-1.1-1.3-2.1-1.4-3.5-0.7c-1.3,0.7-2.5,1.3-3.7,2.1c-14,9.5-26.6,20.6-37.8,33.4         c-2.4,2.7-4.7,5.7-6.6,8.9c9.2-2.3,18.1-4.9,28-4.5c-4.2,3-7.6,6.1-10.6,9.6c-3.3,3.4-6.1,7.2-8.5,11.2         c-7.1,11.5-14.7,22.5-23.1,33.1c-2,2.4-3.8,4.9-6.1,7.6c14.6-0.8,28.8-1.7,43-3.3c0.1,0.1,0.1,0.3,0.3,0.3         c-0.1,0-0.1,0.1-0.3,0.1c-13,5.4-25.3,12.2-35.8,21.6c-6.5,5.9-11.9,12.9-15.3,21.2c-1,2.5-1.7,3.8-2.4,7.9         c-0.7,4.2-4.2,41.4-4.1,46.1c0.1,4.7,0.3,3.5,0.3,6.8c0,3.3-0.1,4.8,0.4,7.4c1.4-1.4,2.7-2.7,4.1-3.8         c3.7-3.1,7.6-5.8,12.6-6.4c1.3-0.1,1.4,0.1,1,1.4c-3.8,10.9-6.6,22.1-7.8,33.5c-0.7,7.2-0.7,14.4,1.1,21.5         c1.3,5.2,4,9.8,6.2,14.6c8.6,18,13.7,36.8,14.6,56.7c0.1,3.1,0.1,6.1,0.3,9.2c0.4-0.1,0.4-0.4,0.6-0.7         c1.6-5.5,3.3-11,5.1-16.4c3.1-8.6,6.5-17.3,11.5-25c1.6-2.4,3.4-4.8,5.8-6.6c0.1,0.4,0.3,0.8,0.4,1.3         c2.4,8.5,4.1,17.3,4.9,26c0.6,5.8,0.7,11.5,0.1,17.3c-0.6,7.1-2.7,13.9-4.8,20.6c-2,6.6-4.8,13-9.3,18.4         c-0.3,0.4-0.7,0.7-1,1.1c-0.3,0.4-0.7,0.6-0.7,1.3c13.6-7.4,26.4-15.6,37.2-26.6c5.9-5.9,10.2-12.9,11.9-21.2         c1.4-6.9,2.8-13.9,4.4-20.6c0.6-2.8,1.6-5.5,4-7.5c2.8,3.8,5.4,7.6,7.9,11.6c5.7,9.1,10.9,18.4,14.1,28.7         c3.5,10.9,2.4,21.1-4.5,30.4c-0.4,0.7-1,1.4-1.4,2.1c0.3,0,0.6,0,0.7,0c5.7-1.7,11.2-3.7,16.4-6.5         c5.8-3.1,10.5-7.1,12.6-13.6c2.5-7.8,3.4-15.8,3.8-24c0.1-2.7-0.3-5.5,0.3-8.2c4,16.8,9.2,33.2,17.3,48.5         c3.4,6.6,7.5,12.9,13,18c2.3,2,4.5,3.8,7.5,4.9c0-1.4,0-2.7,0-4c0.1-6.2,1-12.3,2.5-18.2c2-7.8,6.4-14.3,10.9-20.6         c4.2-5.9,8.1-12.2,9.5-19.5c0.3-1.4,0.4-3,0.4-4.4c0.1-1.4,0-3,0-4.4c0.3,0.4,0.4,0.8,0.6,1.4c4,13.9,8.2,27.6,13.9,40.9         c4.1,9.8,9.9,18.1,18.4,24.6c11,8.3,23.6,10.7,37.2,9.6c1.3-0.1,1-0.6,0.4-1.3c-3-4.1-5.7-8.3-8.1-12.9         c-3.5-6.6-5.5-13.6-4.4-21.4c0.7-5.4,1.3-10.7,1.1-16.3c-0.1-3.3-0.7-6.5-1.6-9.8c0.7,0.4,0.8,1,1.3,1.4         c2.3,3.3,4.4,6.5,6.6,9.6c3.8,5.2,7.6,10.6,12.4,14.8c6.5,5.7,14.7,7.6,22.9,9.5c5.1,1.4,10.5,2.3,15.7,3         c8.2,1.1,16.1,3,23.8,6.1c3.8,1.4,7.2,3.4,10.5,6.6c-0.1-0.7-0.1-1-0.3-1.1c-7.9-18.2-16.7-35.9-27.6-52.6         c-3.5-5.2-7.4-10.2-11.3-15.1C546.7,471.7,546.8,471.7,546.8,471.5z M584.9,244.6c-4.8,3.1-9.8,6.1-14.8,8.5         c-12.4,5.9-25.5,8.1-39.2,5.8c-10-1.6-19.5-4.8-28.7-8.8c-11-4.8-22.6-7.4-34.6-7.9c-13.2-0.6-26,0.7-38.9,3.5         c-2,0.4-4,0.7-6.2,1.7c4,0,7.5,0,11.2,0c8.1,0.1,16,0.7,23.9,1.8c13.4,2,26.2,6.5,38.2,12.7c8.1,4.1,16.1,7.9,24.6,11.2         c14,5.2,27,3.4,39.5-4.2c6.4-4,12-8.8,17.1-14.3C579.8,251.6,582.6,248.2,584.9,244.6z M370.6,75.8c3.4,1.6,6.6,2.8,10.2,3.5         c1.1,0.3,1.3,0.6,1,1.6c-1.6,6.1-3,12-4.8,18c-3.7,11.6-7.1,23.2-14.8,33.1c5.2-0.6,10.3-1,15.4-1.1         c6.8-0.1,13.7-0.1,20.4,1.8c1.3,0.4,1.6,0.1,1.7-1.1c0.4-4.4,1-8.8,1.3-13.2c0.4-6.4,0.7-12.6-0.4-18.9         c-2.1-10.9-5.4-21.4-8.5-32c-1.4-4.7-2.7-9.2-4.2-14.1C383.8,62.7,378.3,69.9,370.6,75.8z M490.7,266.3         c-3.4,3.8-6.4,7.2-9.8,11c4.7,0,9.1,0,13.4,0C493.2,273.7,491.9,270.1,490.7,266.3z M542.4,244.6c-3.5,0.3-6.9,0.6-10.2,0.8         c-0.7,0-1,0.4-0.8,1.1c0.7,3.5,1.4,7.1,2.1,10.9C536.5,253,539.3,248.9,542.4,244.6z M524.8,245.5c-2.1,0-4.1,0-5.9,0         c-0.6,0-0.7,0.1-0.6,0.7c0.8,2.1,1.7,4.4,2.7,6.8C522.2,250.3,523.5,248.1,524.8,245.5z M506.5,277.4         c-0.7-2.1-1.4-4.1-2.1-6.4c-2,2.3-3.7,4.1-5.7,6.4C501.6,277.4,504,277.4,506.5,277.4z M511.3,245c-2,0-3.8,0-5.8,0         c1,1.7,2,3.4,3,5.1C509.5,248.2,510.3,246.7,511.3,245z" />
							<path
   id="XMLID_1053_"
   class="st12"
   d="M366.9,329c-1,0-2,0.1-2.8,0c-1.6-0.1-2.1,0.3-2,2c0.1,4.5,0,9.1,0,13.6 M272.6,205.4         c3-3.5,6.4-6.6,10.6-9.6c-9.9-0.4-18.8,2.3-28,4.5c2-3.4,4.2-6.2,6.6-8.9c11.2-12.7,23.6-23.9,37.8-33.4         c1.1-0.8,2.4-1.4,3.7-2.1c1.4-0.8,2.5-0.6,3.5,0.7c3.3,3.7,5.9,7.8,8.8,11.9c0.8,1.3,1.6,2.4,2.7,3.5         c-0.4-2.1-0.8-4.1-1.3-6.2c-2-10-3.4-20.2-3.7-30.5c-0.3-13.4,3.1-25.6,10.5-36.9c3.8-5.8,6.5-12.4,9.1-18.9         c0.4-1,0.1-1.3-0.7-1.6c-4.1-1.1-7.9-2.8-11.6-4.7c-0.4-0.1-0.8-0.3-1.1-0.7c9.1-5.4,15.8-13.2,22.9-20.9         c1.6,3.8,2.5,7.6,3.3,11.5c3.3,15.8,4.8,32,5.5,48.1c0.4,7.1-0.1,14.1-0.4,21.2c-0.1,1.6,0.1,3.1,0.7,4.7         c0.6,1.1,1.3,1.7,2.7,1.1c4.7-1.6,9.5-1.8,14.3-2c10.6-0.4,21.4-0.1,31.7,2.5c7.5,2,15.1,3.4,22.9,4.4c7.6,1,15.3,1.7,22.9,3         c1.4,0.3,2.8,0.6,4.1,0.8c5.8,1,9.1,5.2,12,9.8c3.3,4.9,5.9,10.2,8.3,15.6c0.4,0.8,0.3,1.3-0.6,1.7c-2.1,1-4.1,2-6.1,3.1         c1,1.1,2.3,1.7,3.4,2.3c7.9,3.7,16.3,5.7,24.6,7.8c20.4,4.9,41,8.8,61.8,12.3c4.1,0.7,8.2,1.4,12.2,2         c0.7,0.1,1.1,0.3,0.8,1.1c-2.7,8.9-5.5,17.8-10,26c-4.4,7.8-11.5,11.3-19.9,12.3c-11.2,1.3-22.3,0.8-33.5,0.4         c-10.9-0.4-21.6-1.4-32.4-3.3c-7.2-1.3-14.7-0.8-21.9-0.1c-7.6,0.7-15.1,2.3-22.6,4c-7.5,1.8-11.6,6.5-13.6,13.6         c-1.1,4-1.4,7.9-1.4,12c0,1.3,0.6,1.1,1.4,1.1c7.4-0.4,14.6-0.3,21.6,2.4c4,1.6,7.9,3.1,11.9,4.8c10.2,4.2,20.8,5.8,31.8,6.1         c15.7,0.6,31.4-0.1,47.1-1.3c0.1,0,0.3,0,0.6,0c-2.5,4.1-4.5,8.3-5.9,12.7c-0.4,1.3-0.8,2.5-1.1,4c-0.4,3-2.3,4.2-4.9,4.9         c-3.1,0.7-6.4,0.7-9.6,0.6c-12.9-0.8-25.7-2.1-38.6-3.4c-14.8-1.4-29.6-2.5-44.5-1.6c-7.1,0.4-13.9,2.3-20.6,4.1         c-17.1,4.7-34.1,4.4-50.9-2.1c-7.1-2.7-14.6-3.7-22.1-4.7c-3.3-0.4-6.4-0.8-9.6-1.1c-0.3,0.6,0.1,0.6,0.3,0.7         c14.1,8.3,29,15,45.1,18.5c5.2,1.1,10.5,1.4,15.8,1.3c7.9-0.3,16-0.1,23.6,2.7c1.6,0.6,3.1,1.3,4.7,2 M382.9,191.8         c0.3-0.1,0.7-0.1,1-0.3c4.8-1.4,9.8-2.5,14.7-3.5c1.4-0.3,2.3,0,3.3,1c2.4,2.4,4.9,4.8,7.5,7.1c2.5,2.3,4.9,4.7,8.3,5.7         c6.1,2,11.9,0.6,17.5-2c4.5-2,8.1-4.8,9.1-10c0.1-0.8,0.7-0.7,1.3-0.8c2.1-0.1,4.1-0.6,5.8-1.6c3.1-1.7,4.9-5.7,3.8-8.6         c-1.3-3.4-4.1-5.1-7.2-6.8c-0.1,1.7-0.1,3.1-0.3,4.7c-0.4,4.2-2.5,6.2-6.8,6.1c-5.5,0-11-1.4-16.4-2.7         c-8.5-2-17-1.8-25.2,1.3C393.2,183.9,387.7,187.1,382.9,191.8z" />
							<path
   id="XMLID_1052_"
   class="st12"
   d="M584.9,244.6c-2.4,3.7-5.1,6.9-8.1,10.2c-5.1,5.5-10.7,10.3-17.1,14.3         c-12.4,7.6-25.6,9.6-39.5,4.2c-8.5-3.3-16.7-7.1-24.6-11.2c-12.2-6.2-24.7-10.7-38.2-12.7c-7.9-1.1-16-1.8-23.9-1.8         c-3.5,0-7.1,0-11.2,0c2.3-1,4.2-1.3,6.2-1.7c12.9-2.8,25.7-4.1,38.9-3.5c12,0.6,23.5,3.1,34.6,7.9c9.2,4,18.8,7.2,28.7,8.8         c13.7,2.1,26.7,0,39.2-5.8C575.2,250.6,580,247.8,584.9,244.6z" />
							<path
   id="XMLID_1051_"
   class="st12"
   d="M370.6,75.8c7.6-5.8,13.3-13.2,17-22.3c1.6,4.9,2.8,9.6,4.2,14.1         c3.1,10.6,6.4,21.1,8.5,32c1.3,6.2,0.8,12.6,0.4,18.9c-0.3,4.4-0.8,8.8-1.3,13.2c-0.1,1.1-0.4,1.4-1.7,1.1         c-6.6-2-13.4-2-20.4-1.8c-5.1,0.1-10.2,0.6-15.4,1.1c7.8-9.9,11.2-21.6,14.8-33.1c1.8-5.9,3.4-11.9,4.8-18         c0.3-1.1,0-1.4-1-1.6C377.3,78.7,373.9,77.4,370.6,75.8z" />
							<path
   id="XMLID_1050_"
   class="st12"
   d="M490.7,266.3c1.3,3.8,2.4,7.4,3.7,11c-4.4,0-8.6,0-13.4,0         C484.3,273.5,487.4,270,490.7,266.3z" />
							<path
   id="XMLID_1049_"
   class="st12"
   d="M542.4,244.6c-3.1,4.4-5.9,8.5-8.9,12.9c-0.7-3.8-1.4-7.4-2.1-10.9         c-0.1-0.7,0.1-1,0.8-1.1C535.5,245.1,538.9,244.8,542.4,244.6z" />
							<path
   id="XMLID_1048_"
   class="st12"
   d="M524.8,245.5c-1.3,2.5-2.4,4.9-3.7,7.5c-1-2.4-1.8-4.7-2.7-6.8         c-0.3-0.6,0-0.7,0.6-0.7C520.7,245.5,522.6,245.5,524.8,245.5z" />
							<path
   id="XMLID_1047_"
   class="st12"
   d="M506.5,277.4c-2.5,0-4.9,0-7.8,0c2-2.3,3.7-4.2,5.7-6.4         C505.2,273.1,505.8,275.2,506.5,277.4z" />
							<path
   id="XMLID_1046_"
   class="st12"
   d="M511.3,245c-1,1.7-1.8,3.3-2.8,5.1c-1-1.7-2-3.3-3-5.1C507.5,245,509.2,245,511.3,245         z" />
							<path
   id="XMLID_1045_"
   class="st12"
   d="M342.8,379.7c-0.3,0.6-0.1,1.3-0.1,1.8c0,7.1,0,14.3-0.1,21.4         c-0.6,18.5-13.7,32-32.2,33.5c-7.5,0.6-15,0.3-21.9-2.7c-12.2-5.1-18.8-14.4-20.6-27.3c-0.4-3-0.4-5.9-0.4-8.9         c0-16.5,0-33.1,0-49.8c0-1.6-0.4-2-1.8-1.8c-2.7,0.1-5.4,0-8.2,0c-1,0-1.4-0.1-1.4-1.4c0-4.8,0-9.5,0-14.3         c0-1,0.3-1.3,1.3-1.3c12.9,0,25.7,0,38.7,0c1,0,1.3,0.3,1.3,1.3c0,4.8,0,9.5,0,14.3c0,1.3-0.4,1.4-1.4,1.4         c-2.1,0-4.2,0-6.5,0c-1.3,0-1.7,0.3-1.7,1.7c0,9.6,0,19.1,0,28.7c0,7.2,0,14.4,0,21.8c0,3.5,0.4,6.9,1.8,10         c3,6.6,10.2,10.5,17.8,9.6c7.5-0.8,13.2-5.9,14.6-13.3c0.6-2.8,0.7-5.7,0.7-8.5c0-11.6,0-23.2,0-34.8c0-0.3,0-0.7-0.1-1         c0-1,0-1.8,0-2.8c0-3.4,0-6.9,0.1-10.3c0-1-0.4-1.1-1.3-1.1c-2.4,0-4.7,0-7.1,0c-1,0-1.4-0.3-1.4-1.3c0-3.4,0-6.9,0-10.3         c0-0.6,0.1-1.1-0.1-1.7c0.3-1.1-0.4-2.8,0.4-3.4c1-0.6,2.5-0.3,3.8-0.3c11.9,0,23.8,0,35.6,0c1.4,0,1.7,0.4,1.7,1.7         c-0.1,5.1-0.1,10.2-0.1,15.3c-3.3,0-6.6,0-9.9,0c-0.7,0-1.4-0.1-1.4,0.8c0.1,2.5-0.3,5.1,0.1,7.8c-0.1,3.1-0.1,6.2,0,9.3         c-0.3,3.4-0.3,6.9,0,10.3C342.6,376.1,342.6,377.9,342.8,379.7z" />
							<path
   id="XMLID_1044_"
   class="st12"
   d="M393.9,351.2c-0.4,3.5-0.1,7.2-0.1,10.9c0,17.7,0,35.2,0,52.9c0,1.3,0.4,1.6,1.6,1.6         c7.4,0,14.7-0.1,22.1,0c1.4,0,1.7-0.4,1.7-1.7c-0.1-3.7,0-7.2-0.1-10.9c0-1.1,0.4-1.4,1.4-1.4c5.8,0,11.6,0,17.5,0         c1,0,1.3,0.3,1.3,1.3c0,9.9,0,19.7,0,29.6c0,1.4-0.7,1.3-1.6,1.3c-10.6,0-21.2,0-31.8,0c-0.7,0-1.4,0.1-2,0.1         c-1.4,0-2.8-0.1-4.2-0.1c-11.9,0-23.9,0-35.8,0c-1.3,0-1.7-0.3-1.7-1.7c0.1-4.7,0.1-9.3,0-14.1c0-1.1,0.3-1.3,1.3-1.3         c3,0,5.9,0,9.1,0c0.8,0,1.3-0.1,1.3-1.1c0-10.3,0-20.6,0-30.8c0-0.1,0-0.3-0.1-0.6c0-2.5,0-5.2,0-7.8c0-1,0-2,0-3         c0-9.2,0-18.2,0.1-27.4c0-1-0.4-1-1.1-1c-3,0-5.9,0-8.9,0c-1,0-1.7-0.1-1.6-1.3c0-0.1,0-0.1,0-0.3c0-4.5,0.1-9.1,0-13.6         c0-1.7,0.4-2.1,2-2c1,0.1,2,0,2.8,0c3.4,0,6.9,0.1,10.3,0.1c8.8,0,17.5,0,26.2,0c1.4,0,1.8,0.4,1.7,1.8c-0.1,3,0,5.8,0,8.8         c0,1.7-0.1,3.5,0,5.2c0,0.8-0.3,1.1-1.1,1.1c-1.8,0-3.7,0-5.4,0c-1.6,0-3.7-0.7-4.5,0.3C393.2,347.5,393.8,349.6,393.9,351.2         z" />
							<path
   id="XMLID_1041_"
   class="st12"
   d="M382.9,191.8c4.8-4.7,10.3-7.9,16.4-10.2c8.2-3.1,16.5-3.3,25.2-1.3         c5.4,1.3,10.7,2.5,16.4,2.7c4.2,0,6.4-1.8,6.8-6.1c0.1-1.4,0.1-3,0.3-4.7c3.1,1.6,5.9,3.4,7.2,6.8c1.1,3-0.7,6.9-3.8,8.6         c-1.8,1-3.8,1.4-5.8,1.6c-0.6,0-1.1,0-1.3,0.8c-0.8,5.2-4.5,8.1-9.1,10c-5.7,2.5-11.5,4-17.5,2c-3.4-1-5.8-3.5-8.3-5.7         c-2.5-2.3-5.1-4.7-7.5-7.1c-1-1-2-1.3-3.3-1c-4.9,1-9.9,2.1-14.7,3.5C383.6,191.7,383.2,191.7,382.9,191.8z M443.7,192.7         c0,0,1.1-2.5,1-3c-0.7-1.3-3.5,0.7-8.1-0.4c-2.3-0.6-4.5-0.7-6.8-1.1c-1.1-0.3-1.6,0.1-1.6,1.3c0,0.8-0.4,1.7-0.7,2.4         c-1.4,2.8-3.3,3.1-5.2,0.7c-1-1.3-2-2.7-2.5-4.2c-0.4-1.1-1-1.4-2.1-1.4c-2.5,0-5.1-0.3-7.6,0c-2.3,0.3-5.4,0.7-9.9,0.8" />
							<path
   id="XMLID_1040_"
   class="st12"
   d="M358.9,374.4" />
							<path
   id="XMLID_1039_"
   class="st12"
   d="M342.8,379.7c-0.1-1.8-0.1-3.7,0-5.5" />
							<path
   id="XMLID_1038_"
   class="st12"
   d="M278.1,254c0.4-0.3,0.8-0.3,1.4,0c-0.4,0.1-0.8,0.3-1.1,0.3         C278.3,254.2,278.3,254.2,278.1,254z" />
							<path
   id="XMLID_1037_"
   class="st12"
   d="M529.1,435.6c-0.3-0.3-0.6-0.4-0.8-0.7l0.1-0.1c0.4,0,0.8,0.3,1.1,0.6         C529.4,435.3,529.3,435.5,529.1,435.6z" />
							<path
   id="XMLID_1036_"
   class="st12"
   d="M528.3,434.9c-0.1-0.1-0.3-0.3-0.4-0.4c0.3-0.3,0.4,0,0.6,0.1         C528.3,434.7,528.3,434.7,528.3,434.9z" />
							<path
   id="XMLID_1035_"
   class="st12"
   d="M546.7,471.8c-0.1-0.1-0.3-0.3-0.3-0.3c0.1-0.3,0.3,0,0.4,0.1         C546.8,471.7,546.7,471.7,546.7,471.8z" />
						</g>
					</g>
				</g>
			</g>
		</g>
		<polygon
   id="XMLID_21_"
   class="st9"
   points="390,187.7 419.2,187.3 424.5,194.1 429.9,188.1 449,188.7 456.7,182.3 453.8,176.6     448.7,172.3 446.8,178.8 444.7,181.9 437.8,182.3 416.7,179.2 404.2,180.1   " />
	</g>
	<polygon
   id="XMLID_36_"
   class="st9"
   points="532.2,245.4 532.7,254.7 541,247.5 537.7,243.5  " />
	<polygon
   id="XMLID_100_"
   class="st9"
   points="488.4,268.9 483,277.3 499,281.4 499,277 492.8,276.1  " />
</g>
<g
   id="traces">
	<circle
   id="XMLID_1_"
   class="st13"
   cx="448.5"
   cy="81.6"
   r="16.6" />
	<polyline
   id="XMLID_19_"
   class="st13"
   points="465,83 666,83 746,163 746,207  " />
	<circle
   id="XMLID_15_"
   class="st13"
   cx="746.5"
   cy="223.6"
   r="16.6" />
	<line
   id="XMLID_25_"
   class="st13"
   x1="514"
   y1="146"
   x2="639"
   y2="146" />
	<polyline
   id="XMLID_26_"
   class="st13"
   points="629.5,199.5 704,273.6 704,374 717.5,387 747,387  " />
	<circle
   id="XMLID_24_"
   class="st13"
   cx="497.5"
   cy="144.6"
   r="16.6" />
	<circle
   id="XMLID_27_"
   class="st13"
   cx="653.5"
   cy="144.6"
   r="16.6" />
	<circle
   id="XMLID_28_"
   class="st13"
   cx="612.5"
   cy="198.6"
   r="16.6" />
	<circle
   id="XMLID_29_"
   class="st13"
   cx="763.5"
   cy="385.6"
   r="16.6" />
	<polyline
   id="XMLID_33_"
   class="st13"
   points="212,95 212,149 143.7,219 116,219  " />
	<circle
   id="XMLID_32_"
   class="st13"
   cx="212.5"
   cy="81.6"
   r="16.6" />
	<circle
   id="XMLID_34_"
   class="st13"
   cx="100.5"
   cy="217.6"
   r="16.6" />
	<polyline
   id="XMLID_38_"
   class="st13"
   points="127.3,659 179,710.8 179,728  " />
	<circle
   id="XMLID_39_"
   class="st13"
   cx="115.5"
   cy="646.6"
   r="16.6" />
	<circle
   id="XMLID_40_"
   class="st13"
   cx="179.5"
   cy="740.6"
   r="16.6" />
	<circle
   id="XMLID_41_"
   class="st13"
   cx="644"
   cy="674.1"
   r="16.6" />
	<circle
   id="XMLID_45_"
   class="st13"
   cx="644"
   cy="766.1"
   r="16.6" />
	<path
   id="XMLID_55_"
   class="st13"
   d="M644,693.5c0.1,23.2,0,56,0,56" />
	<polyline
   id="XMLID_54_"
   class="st13"
   points="711,609 711,508 749.7,469.3  " />
	<polyline
   id="XMLID_56_"
   class="st13"
   points="653,517 653,477 683,446.9  " />
	<line
   id="XMLID_58_"
   class="st13"
   x1="575"
   y1="346"
   x2="626"
   y2="346" />
	<circle
   id="XMLID_57_"
   class="st13"
   cx="560.5"
   cy="344.6"
   r="16.6" />
	<circle
   id="XMLID_59_"
   class="st13"
   cx="640.5"
   cy="344.6"
   r="16.6" />
	<circle
   id="XMLID_60_"
   class="st13"
   cx="654.5"
   cy="533.6"
   r="16.6" />
	<circle
   id="XMLID_61_"
   class="st13"
   cx="711.5"
   cy="625.6"
   r="16.6" />
	<circle
   id="XMLID_64_"
   class="st13"
   cx="694.5"
   cy="434.6"
   r="16.6" />
	<circle
   id="XMLID_65_"
   class="st13"
   cx="763.5"
   cy="455.6"
   r="16.6" />
	<circle
   id="XMLID_2_"
   class="st13"
   cx="170.5"
   cy="286.6"
   r="16.6" />
	<polyline
   id="XMLID_5_"
   class="st13"
   points="170,303 170,332 97,404.9 97,456  " />
	<circle
   id="XMLID_3_"
   class="st13"
   cx="97.5"
   cy="472.6"
   r="16.6" />
	<circle
   id="XMLID_6_"
   class="st13"
   cx="170.5"
   cy="407.6"
   r="16.6" />
	<circle
   id="XMLID_7_"
   class="st13"
   cx="170.5"
   cy="525.6"
   r="16.6" />
	<line
   id="XMLID_35_"
   class="st13"
   x1="170"
   y1="424"
   x2="170"
   y2="509" />
</g>
<g
   id="comp_soc">
	<g
   id="XMLID_149_">
		<g
   id="XMLID_301_">
			<path
   id="XMLID_321_"
   class="st9"
   d="M415.6,665.2c0-6.3,0-12.4,0-18.8c3.5,0,6.8,0,10.4,0c0-20.4,0-40.5,0-60.8     c-3.2,0-6.6,0-10.1,0c0-6.8,0-13.4,0-20.2c15,0,30,0,45.4,0c6.3,20.9,12.6,42,18.9,63c0.2,0,0.4,0.1,0.6,0.1     c6.4-21.1,12.7-42.1,19.1-63.2c15.2,0,30.2,0,45.5,0c0,6.7,0,13.2,0,20.1c-3.9,0-7.8,0-11.9,0c0,20.4,0,40.5,0,61     c3.8,0,7.7,0,11.8,0c0,6.5,0,12.6,0,18.8c-13.8,0-27.6,0-41.5,0c0-5.8,0-11.4,0-17.3c2.5,0,5,0,7.7,0c0-16.7,0-33.2,0-50.5     c-1.5,4.9-2.9,9.1-4.2,13.3c-5.3,17.5-10.6,35-15.8,52.5c-0.5,1.7-1.3,2.2-3,2.2c-5.3-0.1-10.6-0.1-15.9,0     c-2.1,0.1-2.9-0.7-3.5-2.7c-6.2-20.9-12.5-41.8-18.7-62.7c-0.2-0.5-0.4-1-0.9-2.2c0,17,0,33.3,0,49.9c2.5,0,5,0,7.8,0     c0,6,0,11.6,0,17.4C443.4,665.2,429.6,665.2,415.6,665.2z M506.3,650.6c0,4.3,0,8.2,0,12c12.2,0,24.2,0,36.3,0     c0-4.5,0-8.8,0-13.5c-4,0-7.9,0-11.9,0c0-22.2,0-44.1,0-66.3c4.1,0,8.1,0,12.1,0c0-5.1,0-9.8,0-14.7c-13.8,0-27.4,0-41.1,0     c-7,23.3-13.9,46.5-21.1,70.4c-0.6-1.5-0.8-2-1-2.5c-6.5-21.7-13-43.3-19.3-65c-0.7-2.3-1.6-3.2-4.1-3.1     c-11.1,0.2-22.2,0.1-33.3,0.1c-1.4,0-2.8,0-4.4,0c0,5,0,9.7,0,14.7c3.6,0,7,0,10.3,0c0,22.3,0,44.2,0,66.5c-3.6,0-7.1,0-10.5,0     c0,4.7,0,9,0,13.4c12.2,0,24.2,0,36.2,0c0-4.1,0-7.9,0-12.1c-2.7,0-5.3,0-7.7,0c0-23.7,0-47,0-70.3c0.1,0,0.3,0,0.4-0.1     c8.2,27.5,16.5,55,24.8,82.6c4.7,0,9.3-0.1,13.8,0.1c2.2,0.1,3.2-0.5,3.8-2.7c6.5-21.8,13.2-43.6,19.9-65.4     c1.4-4.6,2.8-9.3,4.2-13.9c0.1,0,0.3,0.1,0.4,0.1c0,23.2,0,46.3,0,69.7C511.4,650.6,509,650.6,506.3,650.6z" />
			<path
   id="XMLID_315_"
   class="st9"
   d="M284.5,625.8c-4.4,17-14,29.2-29.7,36c-16,6.9-31.8,6.3-46.5-3.7     c-10.5-7.2-16.2-17.6-18.7-29.8c-3.6-17.3-0.9-33.5,10.1-47.8c12.8-16.7,39.8-22.1,58.1-8.6c0.5,0.4,1.1,0.7,2.1,1.4     c0-2.8,0-5.4,0-8c7.8,0,15.3,0,22.9,0c0,12.5,0,24.9,0,37.6c-8.2,0-16.2,0-24.1-0.1c-0.7,0-1.4-1.1-1.9-1.8     c-2.3-3-4.2-6.3-6.8-8.9c-8.6-8.2-21.2-7.9-29.6,0.5c-12,12-12.4,31.5-0.9,43.9c9.2,10,24.1,9.2,33.1-1.8     c1.8-2.2,3.2-4.8,4.9-7.1c0.5-0.7,1.4-1.6,2.1-1.6C267.7,625.8,275.9,625.8,284.5,625.8z M280.3,600c0-5.7,0-11,0-16.3     c0-5.3,0-10.5,0-15.8c-6,0-11.6,0-17.7,0c0,3.7,0,7.2,0,11.3c-1.2-1-1.9-1.5-2.5-2.1c-18.1-16.7-46-11.6-58.8,5.8     c-10.9,14.8-12.7,31.3-7.9,48.6c4.4,16,14.7,26.6,30.9,30.9c17.4,4.6,37.7-3.2,48.8-18.3c3.4-4.7,6.1-9.7,7.8-15.6     c-6.8,0-13.2-0.1-19.7,0.1c-0.7,0-1.6,0.9-2.1,1.5c-1.7,2.2-3.1,4.7-4.9,6.8c-9.9,11.4-25.2,12.4-35.8,2.4     c-11.8-11.1-13.4-30.3-3.7-44.2c6.5-9.3,15.5-13.1,26-10.8c8,1.7,13.3,6.9,17.5,13.6c0.5,0.9,1.5,2,2.4,2     C266.9,600.1,273.4,600,280.3,600z" />
			<path
   id="XMLID_311_"
   class="st9"
   d="M596.4,628.8c0,6.1,0,11.6,0,17.6c3.9,0,7.8,0,11.9,0c0,6.5,0,12.6,0,18.8     c-14.7,0-29.4,0-44.2,0c0-6.1,0-12.2,0-18.6c3.4,0,6.8,0,10.4,0c0-20.5,0-40.7,0-61.1c-3.9,0-7.7,0-11.7,0c0-6.8,0-13.4,0-20.2     c1,0,1.9-0.1,2.8-0.1c15.9,0,31.8,0,47.7,0c16,0,28.7,10.9,31.1,25.9c2.8,17.7-9.1,33.3-22.5,36.7c-2.7,0.7-5.5,0.9-8.3,1     C607.9,629,602.3,628.8,596.4,628.8z M593.7,626.2c6.6,0,12.9,0.1,19.1,0c2.5,0,5.1-0.1,7.4-0.7c14.1-3.6,23.5-17.9,21.6-32.7     c-1.9-14.9-13.2-24.7-28.5-24.7c-15,0-30.1,0-45.1,0c-0.9,0-1.9,0-3,0c0,5.1,0,9.8,0,15c4,0,7.9,0,11.9,0c0,22.2,0,44,0,66.2     c-3.6,0-7,0-10.4,0c0,4.7,0,9,0,13.4c13,0,25.9,0,38.9,0c0-4.5,0-8.9,0-13.6c-4.1,0-7.9,0-11.9,0     C593.7,641.3,593.7,633.9,593.7,626.2z" />
			<path
   id="XMLID_308_"
   class="st9"
   d="M350.8,564.1c24.5,0,45,18.2,48.2,42.8c2.2,16.3-1.4,31.1-12.6,43.4     c-11.5,12.7-26.2,17.8-43,15.1c-22.2-3.5-36-17-40.9-38.6c-4.8-21.5,1.6-39.8,19.4-53.5C329.7,567.4,340.4,564.1,350.8,564.1z      M303.3,615.2c0.8,4.6,1.2,9.4,2.4,13.9c9,33.9,51.7,45.9,76.8,21.4c11.7-11.4,15.6-25.7,14-41.7c-2.8-28-28.7-46.8-56.1-40.8     C318.9,572.7,303.7,592.2,303.3,615.2z" />
			<path
   id="XMLID_305_"
   class="st9"
   d="M593.8,613.8c0-10.3,0-20.5,0-30.7c6.2,0,12.3-0.5,18.3,0.1c7.6,0.8,13,8.4,12.6,16.5     c-0.4,7.2-6.6,13.6-14,14C605.1,614,599.5,613.8,593.8,613.8z M596.4,611c5.2,0,10.3,0.4,15.2-0.1c6-0.7,10.3-6.1,10.5-12     c0.1-6.2-4.3-12.1-10.3-12.8c-5-0.6-10.1-0.1-15.3-0.1C596.4,594.2,596.4,602.6,596.4,611z" />
			<path
   id="XMLID_302_"
   class="st9"
   d="M379.8,614.3c-0.4,9.4-3.1,17.7-10,24.3c-9.8,9.5-24.1,10.4-35.1,2.3     c-15.2-11.2-17.9-33.6-5.6-47.9c7.1-8.2,16.2-12,26.8-9.7c11.3,2.4,18.4,9.9,21.9,20.8C379,607.4,379.2,610.9,379.8,614.3z      M376.9,613.4c-0.3-1.6-0.4-4.6-1.2-7.5c-2.8-10-8.9-17.1-19.1-19.7c-9.6-2.5-18,0.6-24.6,7.7c-11.8,12.8-10,33.6,3.7,44.4     c10.6,8.3,25.1,6.9,33.9-3.4C374.6,629.1,376.6,622.3,376.9,613.4z" />
		</g>
		<g
   id="XMLID_245_">
			<path
   id="XMLID_261_"
   class="st14"
   d="M415.6,665.2c0-6.3,0-12.4,0-18.8c3.5,0,6.8,0,10.4,0c0-20.4,0-40.5,0-60.8     c-3.2,0-6.6,0-10.1,0c0-6.8,0-13.4,0-20.2c15,0,30,0,45.4,0c6.3,20.9,12.6,42,18.9,63c0.2,0,0.4,0.1,0.6,0.1     c6.4-21.1,12.7-42.1,19.1-63.2c15.2,0,30.2,0,45.5,0c0,6.7,0,13.2,0,20.1c-3.9,0-7.8,0-11.9,0c0,20.4,0,40.5,0,61     c3.8,0,7.7,0,11.8,0c0,6.5,0,12.6,0,18.8c-13.8,0-27.6,0-41.5,0c0-5.8,0-11.4,0-17.3c2.5,0,5,0,7.7,0c0-16.7,0-33.2,0-50.5     c-1.5,4.9-2.9,9.1-4.2,13.3c-5.3,17.5-10.6,35-15.8,52.5c-0.5,1.7-1.3,2.2-3,2.2c-5.3-0.1-10.6-0.1-15.9,0     c-2.1,0.1-2.9-0.7-3.5-2.7c-6.2-20.9-12.5-41.8-18.7-62.7c-0.2-0.5-0.4-1-0.9-2.2c0,17,0,33.3,0,49.9c2.5,0,5,0,7.8,0     c0,6,0,11.6,0,17.4C443.4,665.2,429.6,665.2,415.6,665.2z M506.3,650.6c0,4.3,0,8.2,0,12c12.2,0,24.2,0,36.3,0     c0-4.5,0-8.8,0-13.5c-4,0-7.9,0-11.9,0c0-22.2,0-44.1,0-66.3c4.1,0,8.1,0,12.1,0c0-5.1,0-9.8,0-14.7c-13.8,0-27.4,0-41.1,0     c-7,23.3-13.9,46.5-21.1,70.4c-0.6-1.5-0.8-2-1-2.5c-6.5-21.7-13-43.3-19.3-65c-0.7-2.3-1.6-3.2-4.1-3.1     c-11.1,0.2-22.2,0.1-33.3,0.1c-1.4,0-2.8,0-4.4,0c0,5,0,9.7,0,14.7c3.6,0,7,0,10.3,0c0,22.3,0,44.2,0,66.5c-3.6,0-7.1,0-10.5,0     c0,4.7,0,9,0,13.4c12.2,0,24.2,0,36.2,0c0-4.1,0-7.9,0-12.1c-2.7,0-5.3,0-7.7,0c0-23.7,0-47,0-70.3c0.1,0,0.3,0,0.4-0.1     c8.2,27.5,16.5,55,24.8,82.6c4.7,0,9.3-0.1,13.8,0.1c2.2,0.1,3.2-0.5,3.8-2.7c6.5-21.8,13.2-43.6,19.9-65.4     c1.4-4.6,2.8-9.3,4.2-13.9c0.1,0,0.3,0.1,0.4,0.1c0,23.2,0,46.3,0,69.7C511.4,650.6,509,650.6,506.3,650.6z" />
			<path
   id="XMLID_258_"
   class="st14"
   d="M284.5,625.8c-4.4,17-14,29.2-29.7,36c-16,6.9-31.8,6.3-46.5-3.7     c-10.5-7.2-16.2-17.6-18.7-29.8c-3.6-17.3-0.9-33.5,10.1-47.8c12.8-16.7,39.8-22.1,58.1-8.6c0.5,0.4,1.1,0.7,2.1,1.4     c0-2.8,0-5.4,0-8c7.8,0,15.3,0,22.9,0c0,12.5,0,24.9,0,37.6c-8.2,0-16.2,0-24.1-0.1c-0.7,0-1.4-1.1-1.9-1.8     c-2.3-3-4.2-6.3-6.8-8.9c-8.6-8.2-21.2-7.9-29.6,0.5c-12,12-12.4,31.5-0.9,43.9c9.2,10,24.1,9.2,33.1-1.8     c1.8-2.2,3.2-4.8,4.9-7.1c0.5-0.7,1.4-1.6,2.1-1.6C267.7,625.8,275.9,625.8,284.5,625.8z M280.3,600c0-5.7,0-11,0-16.3     c0-5.3,0-10.5,0-15.8c-6,0-11.6,0-17.7,0c0,3.7,0,7.2,0,11.3c-1.2-1-1.9-1.5-2.5-2.1c-18.1-16.7-46-11.6-58.8,5.8     c-10.9,14.8-12.7,31.3-7.9,48.6c4.4,16,14.7,26.6,30.9,30.9c17.4,4.6,37.7-3.2,48.8-18.3c3.4-4.7,6.1-9.7,7.8-15.6     c-6.8,0-13.2-0.1-19.7,0.1c-0.7,0-1.6,0.9-2.1,1.5c-1.7,2.2-3.1,4.7-4.9,6.8c-9.9,11.4-25.2,12.4-35.8,2.4     c-11.8-11.1-13.4-30.3-3.7-44.2c6.5-9.3,15.5-13.1,26-10.8c8,1.7,13.3,6.9,17.5,13.6c0.5,0.9,1.5,2,2.4,2     C266.9,600.1,273.4,600,280.3,600z" />
			<path
   id="XMLID_255_"
   class="st14"
   d="M596.4,628.8c0,6.1,0,11.6,0,17.6c3.9,0,7.8,0,11.9,0c0,6.5,0,12.6,0,18.8     c-14.7,0-29.4,0-44.2,0c0-6.1,0-12.2,0-18.6c3.4,0,6.8,0,10.4,0c0-20.5,0-40.7,0-61.1c-3.9,0-7.7,0-11.7,0c0-6.8,0-13.4,0-20.2     c1,0,1.9-0.1,2.8-0.1c15.9,0,31.8,0,47.7,0c16,0,28.7,10.9,31.1,25.9c2.8,17.7-9.1,33.3-22.5,36.7c-2.7,0.7-5.5,0.9-8.3,1     C607.9,629,602.3,628.8,596.4,628.8z M593.7,626.2c6.6,0,12.9,0.1,19.1,0c2.5,0,5.1-0.1,7.4-0.7c14.1-3.6,23.5-17.9,21.6-32.7     c-1.9-14.9-13.2-24.7-28.5-24.7c-15,0-30.1,0-45.1,0c-0.9,0-1.9,0-3,0c0,5.1,0,9.8,0,15c4,0,7.9,0,11.9,0c0,22.2,0,44,0,66.2     c-3.6,0-7,0-10.4,0c0,4.7,0,9,0,13.4c13,0,25.9,0,38.9,0c0-4.5,0-8.9,0-13.6c-4.1,0-7.9,0-11.9,0     C593.7,641.3,593.7,633.9,593.7,626.2z" />
			<path
   id="XMLID_252_"
   class="st14"
   d="M350.8,564.1c24.5,0,45,18.2,48.2,42.8c2.2,16.3-1.4,31.1-12.6,43.4     c-11.5,12.7-26.2,17.8-43,15.1c-22.2-3.5-36-17-40.9-38.6c-4.8-21.5,1.6-39.8,19.4-53.5C329.7,567.4,340.4,564.1,350.8,564.1z      M303.3,615.2c0.8,4.6,1.2,9.4,2.4,13.9c9,33.9,51.7,45.9,76.8,21.4c11.7-11.4,15.6-25.7,14-41.7c-2.8-28-28.7-46.8-56.1-40.8     C318.9,572.7,303.7,592.2,303.3,615.2z" />
			<path
   id="XMLID_249_"
   class="st14"
   d="M593.8,613.8c0-10.3,0-20.5,0-30.7c6.2,0,12.3-0.5,18.3,0.1c7.6,0.8,13,8.4,12.6,16.5     c-0.4,7.2-6.6,13.6-14,14C605.1,614,599.5,613.8,593.8,613.8z M596.4,611c5.2,0,10.3,0.4,15.2-0.1c6-0.7,10.3-6.1,10.5-12     c0.1-6.2-4.3-12.1-10.3-12.8c-5-0.6-10.1-0.1-15.3-0.1C596.4,594.2,596.4,602.6,596.4,611z" />
			<path
   id="XMLID_246_"
   class="st14"
   d="M379.8,614.3c-0.4,9.4-3.1,17.7-10,24.3c-9.8,9.5-24.1,10.4-35.1,2.3     c-15.2-11.2-17.9-33.6-5.6-47.9c7.1-8.2,16.2-12,26.8-9.7c11.3,2.4,18.4,9.9,21.9,20.8C379,607.4,379.2,610.9,379.8,614.3z      M376.9,613.4c-0.3-1.6-0.4-4.6-1.2-7.5c-2.8-10-8.9-17.1-19.1-19.7c-9.6-2.5-18,0.6-24.6,7.7c-11.8,12.8-10,33.6,3.7,44.4     c10.6,8.3,25.1,6.9,33.9-3.4C374.6,629.1,376.6,622.3,376.9,613.4z" />
		</g>
	</g>
	<g
   id="XMLID_8_">
		<g
   id="XMLID_218_">
			<path
   id="XMLID_230_"
   class="st9"
   d="M310.1,686.5c0.1-1.1,0.2-2,0.2-3c7.1,0,14.1,0,21.4,0c0,9.3,0,18.6,0,28     c-7.5,0-15,0-22.4,0c-0.9-7.3-4.4-10.4-10.4-9.4c-3.7,0.6-5.8,3-6.9,6.3c-1.1,3.3-1.4,6.9,1.5,9.4c2.4,2,5.1,3.7,8,5     c5.6,2.5,11.5,4.4,17.1,7c8.8,4.1,15.1,10.5,16.2,20.6c2.9,25.2-14.5,36.5-34.3,33.9c-4.9-0.6-9.6-2.6-14.5-4     c-0.1,0.7-0.2,1.8-0.4,3.2c-6.2,0-12.3,0-18.8,0c0-6.1,0-12.2,0-18.2c0-6,0-11.9,0-18.1c7.5,0,14.9,0,22.4,0     c0.4,2.6,0.7,5.2,1.3,7.8c1.6,6.8,8,10.6,14.8,8.8c3.6-1,6.2-4.2,6.6-8.2c0.4-4.4-0.6-6.7-4.9-8.4c-5.5-2.2-11.3-3.9-16.9-5.7     c-0.7-0.2-1.5-0.5-2.2-0.7c-13.8-5.4-20.5-15.6-19.2-29.8c1.2-14.1,10.7-24.9,24.2-27.8C299.1,681.7,303.7,682.6,310.1,686.5z      M286.9,749.8c-5.9,0-11.6,0-17.1,0c0,10.5,0,20.8,0,31.1c4.5,0,8.8,0,13.4,0c0-2.4,0-4.5,0-6.8c8.6,6.8,18.1,9.3,28.4,7.5     c19.6-3.4,23.3-21.5,19.7-34.6c-2.3-8.5-9.1-12.8-16.6-16c-6.5-2.8-13.2-5.3-19.6-8.3c-4.5-2.2-6.7-6.1-6.3-11.4     c0.5-6.1,4.1-10.9,9.4-11.6c6.9-1,12.2,1.8,13.4,7.9c0.1,0.5,1,1.3,1.5,1.3c5.4,0.1,10.7,0.1,16.3,0.1c0-4,0-7.7,0-11.3     c0-3.7,0-7.4,0-11.1c-5.6,0-10.9,0-16.5,0c0,2.6,0,5,0,8c-1.2-1.6-1.9-2.5-2.7-3.5c-3.3-4.5-7.8-6.1-13.1-5.7     c-12.3,1-21.6,8.6-24.6,20.6c-3,12.2,0,25.5,14.9,31.5c2.5,1,5,1.9,7.6,2.7c4.7,1.6,9.5,3,14.1,4.9c3.5,1.5,5.8,4.4,5.8,8.5     c0,5.8-2.9,10.6-7.7,12.4c-5.3,2-11.9,0.4-15.7-3.7C288.1,758.8,287.4,754.4,286.9,749.8z" />
			<path
   id="XMLID_227_"
   class="st9"
   d="M451.7,732.2c-0.9,21.5-8.9,37.7-27.5,47c-28.5,14.2-62.1-1.9-69.6-32.9     c-6.9-28.5,8.8-55.5,36.3-62.5c26.4-6.7,53.5,10.1,59.2,37C451,724.9,451.3,729.2,451.7,732.2z M355.5,734.8     c0.5,3.2,1,8.1,2.2,12.8c9.1,33.8,51.7,45.6,76.7,21.2c12.8-12.5,16.5-28.1,13.5-45.4c-5.2-30.3-37.9-47.2-65.5-33.6     C364.6,698.5,356.5,713.6,355.5,734.8z" />
			<path
   id="XMLID_224_"
   class="st9"
   d="M431.7,732.5c-0.4,9.3-3,17.5-9.7,24.1c-9.9,9.8-24.4,10.8-35.5,2.4     c-15.1-11.3-17.6-33.7-5.3-47.9c7-8.1,16.1-11.8,26.6-9.6c11.4,2.4,18.6,10,22,21C430.9,725.8,431.2,729.2,431.7,732.5z      M376.1,730.2c0,8,1.4,13.2,4.2,17.9c9.9,17.1,31.6,18.6,42.9,3c8.1-11.3,7.5-28.4-1.9-38.8c-5.8-6.5-13.2-9.8-21.9-8.3     C385.5,706.2,376.1,718,376.1,730.2z" />
			<path
   id="XMLID_219_"
   class="st9"
   d="M566.2,744.1c-4.4,17-14,29.2-29.7,36c-16,6.9-31.8,6.3-46.5-3.7     c-10.5-7.2-16.2-17.6-18.7-29.8c-3.6-17.3-0.9-33.5,10.1-47.8c12.8-16.7,39.8-22.1,58.1-8.6c0.5,0.4,1.1,0.7,2.1,1.4     c0-2.8,0-5.4,0-8c7.8,0,15.3,0,22.9,0c0,12.5,0,24.9,0,37.6c-8.2,0-16.2,0-24.1-0.1c-0.7,0-1.4-1.1-1.9-1.8     c-2.3-3-4.2-6.3-6.8-8.9c-8.6-8.2-21.2-7.9-29.6,0.5c-12,12-12.4,31.5-0.9,43.9c9.2,10,24.1,9.2,33.1-1.8     c1.8-2.2,3.2-4.8,4.9-7.1c0.5-0.7,1.4-1.6,2.1-1.6C549.4,744,557.5,744.1,566.2,744.1z M561.9,718.2c0-5.7,0-11,0-16.3     c0-5.3,0-10.5,0-15.8c-6,0-11.6,0-17.7,0c0,3.7,0,7.2,0,11.3c-1.2-1-1.9-1.5-2.5-2.1c-18.1-16.7-46-11.6-58.8,5.8     c-10.9,14.8-12.7,31.3-7.9,48.6c4.4,16,14.7,26.6,30.9,30.9c17.4,4.6,37.7-3.2,48.8-18.3c3.4-4.7,6.1-9.7,7.8-15.6     c-6.8,0-13.2-0.1-19.7,0.1c-0.7,0-1.6,0.9-2.1,1.5c-1.7,2.2-3.1,4.7-4.9,6.8c-9.9,11.4-25.2,12.4-35.8,2.4     c-11.8-11.1-13.4-30.3-3.7-44.2c6.5-9.3,15.5-13.1,26-10.8c8,1.7,13.3,6.9,17.5,13.6c0.5,0.9,1.5,2,2.4,2     C548.6,718.3,555.1,718.2,561.9,718.2z" />
		</g>
		<g
   id="XMLID_174_">
			<path
   id="XMLID_184_"
   class="st14"
   d="M310.1,686.5c0.1-1.1,0.2-2,0.2-3c7.1,0,14.1,0,21.4,0c0,9.3,0,18.6,0,28     c-7.5,0-15,0-22.4,0c-0.9-7.3-4.4-10.4-10.4-9.4c-3.7,0.6-5.8,3-6.9,6.3c-1.1,3.3-1.4,6.9,1.5,9.4c2.4,2,5.1,3.7,8,5     c5.6,2.5,11.5,4.4,17.1,7c8.8,4.1,15.1,10.5,16.2,20.6c2.9,25.2-14.5,36.5-34.3,33.9c-4.9-0.6-9.6-2.6-14.5-4     c-0.1,0.7-0.2,1.8-0.4,3.2c-6.2,0-12.3,0-18.8,0c0-6.1,0-12.2,0-18.2c0-6,0-11.9,0-18.1c7.5,0,14.9,0,22.4,0     c0.4,2.6,0.7,5.2,1.3,7.8c1.6,6.8,8,10.6,14.8,8.8c3.6-1,6.2-4.2,6.6-8.2c0.4-4.4-0.6-6.7-4.9-8.4c-5.5-2.2-11.3-3.9-16.9-5.7     c-0.7-0.2-1.5-0.5-2.2-0.7c-13.8-5.4-20.5-15.6-19.2-29.8c1.2-14.1,10.7-24.9,24.2-27.8C299.1,681.7,303.7,682.6,310.1,686.5z      M286.9,749.8c-5.9,0-11.6,0-17.1,0c0,10.5,0,20.8,0,31.1c4.5,0,8.8,0,13.4,0c0-2.4,0-4.5,0-6.8c8.6,6.8,18.1,9.3,28.4,7.5     c19.6-3.4,23.3-21.5,19.7-34.6c-2.3-8.5-9.1-12.8-16.6-16c-6.5-2.8-13.2-5.3-19.6-8.3c-4.5-2.2-6.7-6.1-6.3-11.4     c0.5-6.1,4.1-10.9,9.4-11.6c6.9-1,12.2,1.8,13.4,7.9c0.1,0.5,1,1.3,1.5,1.3c5.4,0.1,10.7,0.1,16.3,0.1c0-4,0-7.7,0-11.3     c0-3.7,0-7.4,0-11.1c-5.6,0-10.9,0-16.5,0c0,2.6,0,5,0,8c-1.2-1.6-1.9-2.5-2.7-3.5c-3.3-4.5-7.8-6.1-13.1-5.7     c-12.3,1-21.6,8.6-24.6,20.6c-3,12.2,0,25.5,14.9,31.5c2.5,1,5,1.9,7.6,2.7c4.7,1.6,9.5,3,14.1,4.9c3.5,1.5,5.8,4.4,5.8,8.5     c0,5.8-2.9,10.6-7.7,12.4c-5.3,2-11.9,0.4-15.7-3.7C288.1,758.8,287.4,754.4,286.9,749.8z" />
			<path
   id="XMLID_181_"
   class="st14"
   d="M451.7,732.2c-0.9,21.5-8.9,37.7-27.5,47c-28.5,14.2-62.1-1.9-69.6-32.9     c-6.9-28.5,8.8-55.5,36.3-62.5c26.4-6.7,53.5,10.1,59.2,37C451,724.9,451.3,729.2,451.7,732.2z M355.5,734.8     c0.5,3.2,1,8.1,2.2,12.8c9.1,33.8,51.7,45.6,76.7,21.2c12.8-12.5,16.5-28.1,13.5-45.4c-5.2-30.3-37.9-47.2-65.5-33.6     C364.6,698.5,356.5,713.6,355.5,734.8z" />
			<path
   id="XMLID_178_"
   class="st14"
   d="M431.7,732.5c-0.4,9.3-3,17.5-9.7,24.1c-9.9,9.8-24.4,10.8-35.5,2.4     c-15.1-11.3-17.6-33.7-5.3-47.9c7-8.1,16.1-11.8,26.6-9.6c11.4,2.4,18.6,10,22,21C430.9,725.8,431.2,729.2,431.7,732.5z      M376.1,730.2c0,8,1.4,13.2,4.2,17.9c9.9,17.1,31.6,18.6,42.9,3c8.1-11.3,7.5-28.4-1.9-38.8c-5.8-6.5-13.2-9.8-21.9-8.3     C385.5,706.2,376.1,718,376.1,730.2z" />
			<path
   id="XMLID_175_"
   class="st14"
   d="M566.2,744.1c-4.4,17-14,29.2-29.7,36c-16,6.9-31.8,6.3-46.5-3.7     c-10.5-7.2-16.2-17.6-18.7-29.8c-3.6-17.3-0.9-33.5,10.1-47.8c12.8-16.7,39.8-22.1,58.1-8.6c0.5,0.4,1.1,0.7,2.1,1.4     c0-2.8,0-5.4,0-8c7.8,0,15.3,0,22.9,0c0,12.5,0,24.9,0,37.6c-8.2,0-16.2,0-24.1-0.1c-0.7,0-1.4-1.1-1.9-1.8     c-2.3-3-4.2-6.3-6.8-8.9c-8.6-8.2-21.2-7.9-29.6,0.5c-12,12-12.4,31.5-0.9,43.9c9.2,10,24.1,9.2,33.1-1.8     c1.8-2.2,3.2-4.8,4.9-7.1c0.5-0.7,1.4-1.6,2.1-1.6C549.4,744,557.5,744.1,566.2,744.1z M561.9,718.2c0-5.7,0-11,0-16.3     c0-5.3,0-10.5,0-15.8c-6,0-11.6,0-17.7,0c0,3.7,0,7.2,0,11.3c-1.2-1-1.9-1.5-2.5-2.1c-18.1-16.7-46-11.6-58.8,5.8     c-10.9,14.8-12.7,31.3-7.9,48.6c4.4,16,14.7,26.6,30.9,30.9c17.4,4.6,37.7-3.2,48.8-18.3c3.4-4.7,6.1-9.7,7.8-15.6     c-6.8,0-13.2-0.1-19.7,0.1c-0.7,0-1.6,0.9-2.1,1.5c-1.7,2.2-3.1,4.7-4.9,6.8c-9.9,11.4-25.2,12.4-35.8,2.4     c-11.8-11.1-13.4-30.3-3.7-44.2c6.5-9.3,15.5-13.1,26-10.8c8,1.7,13.3,6.9,17.5,13.6c0.5,0.9,1.5,2,2.4,2     C548.6,718.3,555.1,718.2,561.9,718.2z" />
		</g>
	</g>
</g>
<g
   id="Layer_7">
	<path
   id="XMLID_17_"
   class="st9"
   d="M819.7,532.5c-23.9,0-47.5,0-71.7,0c-0.1,18.7,0,37.1,0,55.9c8.1,0.4,16,0.1,23.8,0.2   c8,0.1,16,0,24,0c7.9,0,15.7,0,23.9,0c0,73.1,0,145.9,0,218.9c-0.8,0.1-1.5,0.3-2.3,0.3c-1.1,0.1-2.1,0-3.2,0   c-219.2,0-438.4,0-657.6,0.1c-3.4,0-5.6-0.9-7.9-3.2c-19-19-38.1-37.9-57.2-56.8c-15.4-15.3-30.8-30.6-46.2-45.9   c-1.9-1.9-3.6-3.9-5.6-5.6c-1.5-1.3-2-2.8-2-4.8c0.1-21,0-41.9,0-62.9c0-12,0-24,0-36c0-1.2,0-2.4,0-4.2c12.3,0,24.4,0,36.5,0   c12,0,24,0,36.1,0c0-18.8,0-37.3,0-56c-24.2,0-48.2,0-72,0c-0.8-2.9-0.9-203.7-0.1-207.3c23.9,0,47.9,0,72.1,0   c0-18.9,0-37.4,0-56.3c-24.1,0-48.1,0-72.4,0c0-79.6,0-158.9,0-238.3c1-0.1,1.9-0.2,2.8-0.2c0.7,0,1.4,0,2.1,0   c220.1,0,440.3,0,660.4-0.1c3.2,0,5.3,0.9,7.5,3.2c8.6,8.8,17.4,17.3,26.1,26c17.3,17.1,34.6,34.3,51.8,51.4   c9.6,9.5,19.2,19.1,28.9,28.6c1.6,1.6,2.2,3.1,2.2,5.3c-0.1,40.1,0,80.2,0,120.4c0,1.1-0.1,2.2-0.2,3.6c-23.9,0-47.5,0-71,0   c-0.9,2.5-1.2,51.3-0.3,56.3c3.2,0.3,6.6,0.1,10,0.1c3.4,0,6.8,0,10.3,0c3.4,0,6.8,0,10.3,0c3.3,0,6.6,0,9.9,0c3.4,0,6.8,0,10.3,0   s6.8,0,10.3,0c3.4,0,6.8,0,10.4,0C819.7,394.4,819.7,463.2,819.7,532.5z M812.3,800.9c0.8-4.4,0.6-202.6-0.2-205.2   c-7.8,0-15.7,0-23.6,0c-8,0-16,0-24,0c-7.8,0-15.7,0.1-23.8-0.1c0-23.7,0-46.9,0-70.4c6.4,0,12.3,0,18.2,0c6,0,12,0,18,0   c5.9,0,11.8,0,17.7,0c6,0,11.9,0,17.9,0c0-64.5,0-128.6,0-193c-23.9,0-47.7,0-71.6,0c0-23.6,0-46.9,0-70.5c23.9,0,47.7,0,71.6,0   c0.1-1.5,0.2-2.6,0.2-3.6c0-36.8,0-73.5,0.1-110.3c0-2.1-0.6-3.5-2.2-5c-8.8-8.6-17.4-17.3-26.2-26c-16.2-16.1-32.4-32.2-48.6-48.3   c-9.1-9.1-18.5-17.9-27.4-27.2c-2.8-2.9-5.5-3.8-9.4-3.8c-129.6,0.1-259.3,0.1-388.9,0.1c-86.7,0-173.5,0-260.2,0c-1.5,0-3,0-4.6,0   c0,74.9,0,149.4,0,224.2c24.3,0,48.4,0,72.4,0c0.9,3.8,0.7,67.7-0.2,70.4c-7.9,0-15.9,0-23.9,0c-8.1,0-16.3,0-24.4,0   c-8,0-15.9,0-24,0c0,64.5,0,128.6,0,193c3.6,0,7,0,10.3,0c3.5,0,7.1,0,10.6,0c3.4,0,6.8,0,10.3,0c3.5,0,7.1,0,10.6,0   c3.4,0,6.8,0,10.3,0c3.5,0,7.1-0.1,10.6,0c3.4,0.1,6.7-0.4,10.1,0.3c0.1,0.7,0.2,1.3,0.2,1.8c0,22.2,0,44.4,0,66.6   c0,0.3-0.1,0.7-0.2,1c0,0.1-0.1,0.2-0.2,0.3c-0.1,0.1-0.2,0.1-0.5,0.5c-7.7,0-15.7,0-23.7,0c-8.1,0-16.3,0-24.4,0   c-7.9,0.1-15.9-0.2-23.9,0.2c-0.1,1.3-0.1,2.2-0.1,3.1c0,29.8,0,59.6-0.1,89.4c0,2.2,0.7,3.8,2.3,5.4c5.7,5.6,11.4,11.3,17.1,17   c10.4,10.4,20.9,20.7,31.3,31.1c19,18.8,38,37.7,57,56.6c1.9,1.9,3.8,2.6,6.5,2.6c216.4-0.1,432.7,0,649.1,0   C809.6,800.9,810.8,800.9,812.3,800.9z" />
	<path
   id="XMLID_12_"
   class="st9"
   d="M792.3,709.7c0.6,18.8-11.8,37.4-30.3,44.5c-19.4,7.4-42,1.2-54.5-15   c-6.5-8.4-10-17.8-10.1-28.2c-0.4-23.4,15.6-43.5,38.9-47.8c20.3-3.8,40.6,5.9,50.3,23.7C790.4,694,792.5,701.6,792.3,709.7z    M745.5,669.7c-11.5-0.1-20.9,3.7-28.6,11.3c-10.1,10-13.8,22.1-11.6,36c3.1,19.7,22.1,35.6,43.7,33c8.7-1,16.3-4.2,22.6-10   c11-10.2,15.2-22.8,12.7-37.2C781,683.1,763.8,669.4,745.5,669.7z" />
	<path
   id="XMLID_9_"
   class="st9"
   d="M67.6,125.4c-0.5-20.7,14.5-41.2,37.3-46.2c19.3-4.3,40.2,4.5,50.4,21.3   c4.7,7.6,7.2,15.8,7.2,24.6c0,24.7-17.7,44.7-42,47.7c-20.4,2.5-37.6-7.9-46.5-22.9C69.4,141.8,67.6,134.6,67.6,125.4z M115.6,85.3   c-11.2-0.1-20.3,3.6-27.9,10.6c-14,13.1-17,34.2-7.1,50.4c11.4,18.6,35.5,25.4,55.2,13.7c16-9.5,23.2-29.5,17.3-47.5   C148,97.3,132.8,85,115.6,85.3z" />
</g>
</svg>